# Tiled2Unity generated file. Do not modify by hand.
# Wavefront file for 'wizardtower_outside_mesh_0002.obj'

# Vertices (Count = 128)
v -31 -1 0
v -32 -1 0
v -32 0 0
v -31 0 0
v -26 -1 0
v -27 -1 0
v -27 0 0
v -26 0 0
v -31 -2 0
v -32 -2 0
v -32 -1 0
v -31 -1 0
v -26 -2 0
v -27 -2 0
v -27 -1 0
v -26 -1 0
v -31 -3 0
v -32 -3 0
v -32 -2 0
v -31 -2 0
v -31 -4 0
v -32 -4 0
v -32 -3 0
v -31 -3 0
v -26 -4 0
v -27 -4 0
v -27 -3 0
v -26 -3 0
v -31 -5 0
v -32 -5 0
v -32 -4 0
v -31 -4 0
v -26 -5 0
v -27 -5 0
v -27 -4 0
v -26 -4 0
v -31 -6 0
v -32 -6 0
v -32 -5 0
v -31 -5 0
v -26 -6 0
v -27 -6 0
v -27 -5 0
v -26 -5 0
v -39 -7 0
v -40 -7 0
v -40 -6 0
v -39 -6 0
v -38 -7 0
v -39 -7 0
v -39 -6 0
v -38 -6 0
v -37 -7 0
v -38 -7 0
v -38 -6 0
v -37 -6 0
v -36 -7 0
v -37 -7 0
v -37 -6 0
v -36 -6 0
v -35 -7 0
v -36 -7 0
v -36 -6 0
v -35 -6 0
v -34 -7 0
v -35 -7 0
v -35 -6 0
v -34 -6 0
v -33 -7 0
v -34 -7 0
v -34 -6 0
v -33 -6 0
v -32 -7 0
v -33 -7 0
v -33 -6 0
v -32 -6 0
v -31 -7 0
v -32 -7 0
v -32 -6 0
v -31 -6 0
v -26 -7 0
v -27 -7 0
v -27 -6 0
v -26 -6 0
v -31 -8 0
v -32 -8 0
v -32 -7 0
v -31 -7 0
v -26 -8 0
v -27 -8 0
v -27 -7 0
v -26 -7 0
v -31 -9 0
v -32 -9 0
v -32 -8 0
v -31 -8 0
v -26 -9 0
v -27 -9 0
v -27 -8 0
v -26 -8 0
v -31 -10 0
v -32 -10 0
v -32 -9 0
v -31 -9 0
v -26 -10 0
v -27 -10 0
v -27 -9 0
v -26 -9 0
v -26 -11 0
v -27 -11 0
v -27 -10 0
v -26 -10 0
v -26 -12 0
v -27 -12 0
v -27 -11 0
v -26 -11 0
v -26 -13 0
v -27 -13 0
v -27 -12 0
v -26 -12 0
v -26 -14 0
v -27 -14 0
v -27 -13 0
v -26 -13 0
v -26 -15 0
v -27 -15 0
v -27 -14 0
v -26 -14 0

# Texture cooridinates (Count = 8)
vt 0.75 0.375
vt 0.875 0.375
vt 0.875 0.5
vt 0.75 0.5
vt 0.375 0.625
vt 0.5 0.625
vt 0.5 0.75
vt 0.375 0.75

# Normal
vn 0 0 -1

# Mesh description
g wizardtower_outside_mesh_0002

# Faces
f 1/1/1 2/2/1 3/3/1 4/4/1
f 5/1/1 6/2/1 7/3/1 8/4/1
f 9/1/1 10/2/1 11/3/1 12/4/1
f 13/1/1 14/2/1 15/3/1 16/4/1
f 17/1/1 18/2/1 19/3/1 20/4/1
f 21/1/1 22/2/1 23/3/1 24/4/1
f 25/1/1 26/2/1 27/3/1 28/4/1
f 29/1/1 30/2/1 31/3/1 32/4/1
f 33/1/1 34/2/1 35/3/1 36/4/1
f 37/1/1 38/2/1 39/3/1 40/4/1
f 41/1/1 42/2/1 43/3/1 44/4/1
f 45/1/1 46/2/1 47/3/1 48/4/1
f 49/1/1 50/2/1 51/3/1 52/4/1
f 53/1/1 54/2/1 55/3/1 56/4/1
f 57/1/1 58/2/1 59/3/1 60/4/1
f 61/1/1 62/2/1 63/3/1 64/4/1
f 65/1/1 66/2/1 67/3/1 68/4/1
f 69/1/1 70/2/1 71/3/1 72/4/1
f 73/1/1 74/2/1 75/3/1 76/4/1
f 77/1/1 78/2/1 79/3/1 80/4/1
f 81/1/1 82/2/1 83/3/1 84/4/1
f 85/5/1 86/6/1 87/7/1 88/8/1
f 89/1/1 90/2/1 91/3/1 92/4/1
f 93/5/1 94/6/1 95/7/1 96/8/1
f 97/1/1 98/2/1 99/3/1 100/4/1
f 101/5/1 102/6/1 103/7/1 104/8/1
f 105/1/1 106/2/1 107/3/1 108/4/1
f 109/1/1 110/2/1 111/3/1 112/4/1
f 113/1/1 114/2/1 115/3/1 116/4/1
f 117/1/1 118/2/1 119/3/1 120/4/1
f 121/1/1 122/2/1 123/3/1 124/4/1
f 125/1/1 126/2/1 127/3/1 128/4/1

