# Tiled2Unity generated file. Do not modify by hand.
# Wavefront file for 'house3_mesh_0001.obj'

# Vertices (Count = 188)
v -7 -2 0
v -8 -2 0
v -8 -1 0
v -7 -1 0
v -6 -2 0
v -7 -2 0
v -7 -1 0
v -6 -1 0
v -5 -2 0
v -6 -2 0
v -6 -1 0
v -5 -1 0
v -4 -2 0
v -5 -2 0
v -5 -1 0
v -4 -1 0
v -3 -2 0
v -4 -2 0
v -4 -1 0
v -3 -1 0
v -2 -2 0
v -3 -2 0
v -3 -1 0
v -2 -1 0
v -1 -2 0
v -2 -2 0
v -2 -1 0
v -1 -1 0
v -6 -3 0
v -7 -3 0
v -7 -2 0
v -6 -2 0
v -5 -3 0
v -6 -3 0
v -6 -2 0
v -5 -2 0
v -4 -3 0
v -5 -3 0
v -5 -2 0
v -4 -2 0
v -3 -3 0
v -4 -3 0
v -4 -2 0
v -3 -2 0
v -2 -3 0
v -3 -3 0
v -3 -2 0
v -2 -2 0
v -6 -4 0
v -7 -4 0
v -7 -3 0
v -6 -3 0
v -5 -4 0
v -6 -4 0
v -6 -3 0
v -5 -3 0
v -4 -4 0
v -5 -4 0
v -5 -3 0
v -4 -3 0
v -3 -4 0
v -4 -4 0
v -4 -3 0
v -3 -3 0
v -2 -4 0
v -3 -4 0
v -3 -3 0
v -2 -3 0
v -7 -5 0
v -8 -5 0
v -8 -4 0
v -7 -4 0
v -6 -5 0
v -7 -5 0
v -7 -4 0
v -6 -4 0
v -5 -5 0
v -6 -5 0
v -6 -4 0
v -5 -4 0
v -4 -5 0
v -5 -5 0
v -5 -4 0
v -4 -4 0
v -3 -5 0
v -4 -5 0
v -4 -4 0
v -3 -4 0
v -2 -5 0
v -3 -5 0
v -3 -4 0
v -2 -4 0
v -1 -5 0
v -2 -5 0
v -2 -4 0
v -1 -4 0
v -7 -6 0
v -8 -6 0
v -8 -5 0
v -7 -5 0
v -6 -6 0
v -7 -6 0
v -7 -5 0
v -6 -5 0
v -5 -6 0
v -6 -6 0
v -6 -5 0
v -5 -5 0
v -4 -6 0
v -5 -6 0
v -5 -5 0
v -4 -5 0
v -3 -6 0
v -4 -6 0
v -4 -5 0
v -3 -5 0
v -2 -6 0
v -3 -6 0
v -3 -5 0
v -2 -5 0
v -1 -6 0
v -2 -6 0
v -2 -5 0
v -1 -5 0
v -7 -7 0
v -8 -7 0
v -8 -6 0
v -7 -6 0
v -6 -7 0
v -7 -7 0
v -7 -6 0
v -6 -6 0
v -5 -7 0
v -6 -7 0
v -6 -6 0
v -5 -6 0
v -4 -7 0
v -5 -7 0
v -5 -6 0
v -4 -6 0
v -3 -7 0
v -4 -7 0
v -4 -6 0
v -3 -6 0
v -2 -7 0
v -3 -7 0
v -3 -6 0
v -2 -6 0
v -1 -7 0
v -2 -7 0
v -2 -6 0
v -1 -6 0
v -7 -8 0
v -8 -8 0
v -8 -7 0
v -7 -7 0
v -6 -8 0
v -7 -8 0
v -7 -7 0
v -6 -7 0
v -5 -8 0
v -6 -8 0
v -6 -7 0
v -5 -7 0
v -4 -8 0
v -5 -8 0
v -5 -7 0
v -4 -7 0
v -3 -8 0
v -4 -8 0
v -4 -7 0
v -3 -7 0
v -2 -8 0
v -3 -8 0
v -3 -7 0
v -2 -7 0
v -1 -8 0
v -2 -8 0
v -2 -7 0
v -1 -7 0
v -6 -9 0
v -7 -9 0
v -7 -8 0
v -6 -8 0
v -5 -9 0
v -6 -9 0
v -6 -8 0
v -5 -8 0

# Texture cooridinates (Count = 9)
vt 0.3333333 0.25
vt 0.6666667 0.25
vt 0.6666667 0.5
vt 0.3333333 0.5
vt 0 0
vt 0.3333333 0
vt 0 0.25
vt 0.6666667 0.75
vt 0.3333333 0.75

# Normal
vn 0 0 -1

# Mesh description
g house3_mesh_0001

# Faces
f 1/1/1 2/2/1 3/3/1 4/4/1
f 5/1/1 6/2/1 7/3/1 8/4/1
f 9/1/1 10/2/1 11/3/1 12/4/1
f 13/1/1 14/2/1 15/3/1 16/4/1
f 17/1/1 18/2/1 19/3/1 20/4/1
f 21/1/1 22/2/1 23/3/1 24/4/1
f 25/1/1 26/2/1 27/3/1 28/4/1
f 29/1/1 30/2/1 31/3/1 32/4/1
f 33/1/1 34/2/1 35/3/1 36/4/1
f 37/1/1 38/2/1 39/3/1 40/4/1
f 41/1/1 42/2/1 43/3/1 44/4/1
f 45/1/1 46/2/1 47/3/1 48/4/1
f 49/5/1 50/6/1 51/1/1 52/7/1
f 53/5/1 54/6/1 55/1/1 56/7/1
f 57/5/1 58/6/1 59/1/1 60/7/1
f 61/5/1 62/6/1 63/1/1 64/7/1
f 65/5/1 66/6/1 67/1/1 68/7/1
f 69/5/1 70/6/1 71/1/1 72/7/1
f 73/5/1 74/6/1 75/1/1 76/7/1
f 77/5/1 78/6/1 79/1/1 80/7/1
f 81/5/1 82/6/1 83/1/1 84/7/1
f 85/5/1 86/6/1 87/1/1 88/7/1
f 89/5/1 90/6/1 91/1/1 92/7/1
f 93/5/1 94/6/1 95/1/1 96/7/1
f 97/5/1 98/6/1 99/1/1 100/7/1
f 101/5/1 102/6/1 103/1/1 104/7/1
f 105/5/1 106/6/1 107/1/1 108/7/1
f 109/5/1 110/6/1 111/1/1 112/7/1
f 113/4/1 114/3/1 115/8/1 116/9/1
f 117/5/1 118/6/1 119/1/1 120/7/1
f 121/5/1 122/6/1 123/1/1 124/7/1
f 125/5/1 126/6/1 127/1/1 128/7/1
f 129/4/1 130/3/1 131/8/1 132/9/1
f 133/4/1 134/3/1 135/8/1 136/9/1
f 137/4/1 138/3/1 139/8/1 140/9/1
f 141/4/1 142/3/1 143/8/1 144/9/1
f 145/5/1 146/6/1 147/1/1 148/7/1
f 149/5/1 150/6/1 151/1/1 152/7/1
f 153/5/1 154/6/1 155/1/1 156/7/1
f 157/5/1 158/6/1 159/1/1 160/7/1
f 161/5/1 162/6/1 163/1/1 164/7/1
f 165/5/1 166/6/1 167/1/1 168/7/1
f 169/5/1 170/6/1 171/1/1 172/7/1
f 173/5/1 174/6/1 175/1/1 176/7/1
f 177/5/1 178/6/1 179/1/1 180/7/1
f 181/1/1 182/2/1 183/3/1 184/4/1
f 185/1/1 186/2/1 187/3/1 188/4/1

