# Tiled2Unity generated file. Do not modify by hand.
# Wavefront file for 'house3_mesh_0006.obj'

# Vertices (Count = 116)
v -7 -2 0
v -8 -2 0
v -8 -1 0
v -7 -1 0
v -6 -2 0
v -7 -2 0
v -7 -1 0
v -6 -1 0
v -5 -2 0
v -6 -2 0
v -6 -1 0
v -5 -1 0
v -4 -2 0
v -5 -2 0
v -5 -1 0
v -4 -1 0
v -3 -2 0
v -4 -2 0
v -4 -1 0
v -3 -1 0
v -2 -2 0
v -3 -2 0
v -3 -1 0
v -2 -1 0
v -1 -2 0
v -2 -2 0
v -2 -1 0
v -1 -1 0
v -7 -3 0
v -8 -3 0
v -8 -2 0
v -7 -2 0
v -6 -3 0
v -7 -3 0
v -7 -2 0
v -6 -2 0
v -5 -3 0
v -6 -3 0
v -6 -2 0
v -5 -2 0
v -4 -3 0
v -5 -3 0
v -5 -2 0
v -4 -2 0
v -3 -3 0
v -4 -3 0
v -4 -2 0
v -3 -2 0
v -2 -3 0
v -3 -3 0
v -3 -2 0
v -2 -2 0
v -1 -3 0
v -2 -3 0
v -2 -2 0
v -1 -2 0
v -7 -4 0
v -8 -4 0
v -8 -3 0
v -7 -3 0
v -6 -4 0
v -7 -4 0
v -7 -3 0
v -6 -3 0
v -5 -4 0
v -6 -4 0
v -6 -3 0
v -5 -3 0
v -4 -4 0
v -5 -4 0
v -5 -3 0
v -4 -3 0
v -3 -4 0
v -4 -4 0
v -4 -3 0
v -3 -3 0
v -2 -4 0
v -3 -4 0
v -3 -3 0
v -2 -3 0
v -1 -4 0
v -2 -4 0
v -2 -3 0
v -1 -3 0
v -7 -5 0
v -8 -5 0
v -8 -4 0
v -7 -4 0
v -1 -5 0
v -2 -5 0
v -2 -4 0
v -1 -4 0
v -7 -6 0
v -8 -6 0
v -8 -5 0
v -7 -5 0
v -1 -6 0
v -2 -6 0
v -2 -5 0
v -1 -5 0
v -7 -7 0
v -8 -7 0
v -8 -6 0
v -7 -6 0
v -1 -7 0
v -2 -7 0
v -2 -6 0
v -1 -6 0
v -7 -8 0
v -8 -8 0
v -8 -7 0
v -7 -7 0
v -1 -8 0
v -2 -8 0
v -2 -7 0
v -1 -7 0

# Texture cooridinates (Count = 25)
vt 0 0.875
vt 0.125 0.875
vt 0.125 1
vt 0 1
vt 0.25 0.875
vt 0.25 1
vt 0.375 0.625
vt 0.5 0.625
vt 0.5 0.75
vt 0.375 0.75
vt 0.5 0.875
vt 0.625 0.875
vt 0.625 1
vt 0.5 1
vt 0.625 0.625
vt 0.75 0.625
vt 0.75 0.75
vt 0.625 0.75
vt 0.375 0.875
vt 0.125 0.75
vt 0.25 0.75
vt 0.875 0.625
vt 1 0.625
vt 1 0.75
vt 0.875 0.75

# Normal
vn 0 0 -1

# Mesh description
g house3_mesh_0006

# Faces
f 1/1/1 2/2/1 3/3/1 4/4/1
f 5/1/1 6/2/1 7/3/1 8/4/1
f 9/1/1 10/2/1 11/3/1 12/4/1
f 13/1/1 14/2/1 15/3/1 16/4/1
f 17/1/1 18/2/1 19/3/1 20/4/1
f 21/1/1 22/2/1 23/3/1 24/4/1
f 25/1/1 26/2/1 27/3/1 28/4/1
f 29/2/1 30/5/1 31/6/1 32/3/1
f 33/7/1 34/8/1 35/9/1 36/10/1
f 37/7/1 38/8/1 39/9/1 40/10/1
f 41/7/1 42/8/1 43/9/1 44/10/1
f 45/7/1 46/8/1 47/9/1 48/10/1
f 49/7/1 50/8/1 51/9/1 52/10/1
f 53/11/1 54/12/1 55/13/1 56/14/1
f 57/2/1 58/5/1 59/6/1 60/3/1
f 61/15/1 62/16/1 63/17/1 64/18/1
f 65/15/1 66/16/1 67/17/1 68/18/1
f 69/15/1 70/16/1 71/17/1 72/18/1
f 73/15/1 74/16/1 75/17/1 76/18/1
f 77/15/1 78/16/1 79/17/1 80/18/1
f 81/11/1 82/12/1 83/13/1 84/14/1
f 85/2/1 86/5/1 87/6/1 88/3/1
f 89/11/1 90/12/1 91/13/1 92/14/1
f 93/10/1 94/9/1 95/11/1 96/19/1
f 97/20/1 98/21/1 99/5/1 100/2/1
f 101/8/1 102/15/1 103/18/1 104/9/1
f 105/22/1 106/23/1 107/24/1 108/25/1
f 109/8/1 110/15/1 111/18/1 112/9/1
f 113/22/1 114/23/1 115/24/1 116/25/1

