# Tiled2Unity generated file. Do not modify by hand.
# Wavefront file for 'house3_mesh_0002.obj'

# Vertices (Count = 16)
v -7 -3 0
v -8 -3 0
v -8 -2 0
v -7 -2 0
v -1 -3 0
v -2 -3 0
v -2 -2 0
v -1 -2 0
v -7 -4 0
v -8 -4 0
v -8 -3 0
v -7 -3 0
v -1 -4 0
v -2 -4 0
v -2 -3 0
v -1 -3 0

# Texture cooridinates (Count = 4)
vt 0.375 0.625
vt 0.5 0.625
vt 0.5 0.75
vt 0.375 0.75

# Normal
vn 0 0 -1

# Mesh description
g house3_mesh_0002

# Faces
f 1/1/1 2/2/1 3/3/1 4/4/1
f 5/1/1 6/2/1 7/3/1 8/4/1
f 9/1/1 10/2/1 11/3/1 12/4/1
f 13/1/1 14/2/1 15/3/1 16/4/1

