# Tiled2Unity generated file. Do not modify by hand.
# Wavefront file for 'forest1_mesh_0002.obj'

# Vertices (Count = 48)
v -13 -54 0
v -14 -54 0
v -14 -53 0
v -13 -53 0
v -21 -55 0
v -22 -55 0
v -22 -54 0
v -21 -54 0
v -13 -55 0
v -14 -55 0
v -14 -54 0
v -13 -54 0
v -12 -55 0
v -13 -55 0
v -13 -54 0
v -12 -54 0
v -10 -55 0
v -11 -55 0
v -11 -54 0
v -10 -54 0
v -19 -56 0
v -20 -56 0
v -20 -55 0
v -19 -55 0
v -18 -56 0
v -19 -56 0
v -19 -55 0
v -18 -55 0
v -13 -56 0
v -14 -56 0
v -14 -55 0
v -13 -55 0
v -12 -56 0
v -13 -56 0
v -13 -55 0
v -12 -55 0
v -10 -56 0
v -11 -56 0
v -11 -55 0
v -10 -55 0
v -12 -57 0
v -13 -57 0
v -13 -56 0
v -12 -56 0
v -10 -57 0
v -11 -57 0
v -11 -56 0
v -10 -56 0

# Texture cooridinates (Count = 8)
vt 0.75 0.375
vt 0.875 0.375
vt 0.875 0.5
vt 0.75 0.5
vt 0.375 0.625
vt 0.5 0.625
vt 0.5 0.75
vt 0.375 0.75

# Normal
vn 0 0 -1

# Mesh description
g forest1_mesh_0002

# Faces
f 1/1/1 2/2/1 3/3/1 4/4/1
f 5/1/1 6/2/1 7/3/1 8/4/1
f 9/1/1 10/2/1 11/3/1 12/4/1
f 13/1/1 14/2/1 15/3/1 16/4/1
f 17/1/1 18/2/1 19/3/1 20/4/1
f 21/5/1 22/6/1 23/7/1 24/8/1
f 25/5/1 26/6/1 27/7/1 28/8/1
f 29/1/1 30/2/1 31/3/1 32/4/1
f 33/1/1 34/2/1 35/3/1 36/4/1
f 37/1/1 38/2/1 39/3/1 40/4/1
f 41/1/1 42/2/1 43/3/1 44/4/1
f 45/1/1 46/2/1 47/3/1 48/4/1

