# Tiled2Unity generated file. Do not modify by hand.
# Wavefront file for 'forest1_mesh_0011.obj'

# Vertices (Count = 608)
v -56 -4 0
v -57 -4 0
v -57 -3 0
v -56 -3 0
v -55 -4 0
v -56 -4 0
v -56 -3 0
v -55 -3 0
v -54 -4 0
v -55 -4 0
v -55 -3 0
v -54 -3 0
v -53 -4 0
v -54 -4 0
v -54 -3 0
v -53 -3 0
v -52 -4 0
v -53 -4 0
v -53 -3 0
v -52 -3 0
v -51 -4 0
v -52 -4 0
v -52 -3 0
v -51 -3 0
v -50 -4 0
v -51 -4 0
v -51 -3 0
v -50 -3 0
v -56 -5 0
v -57 -5 0
v -57 -4 0
v -56 -4 0
v -55 -5 0
v -56 -5 0
v -56 -4 0
v -55 -4 0
v -54 -5 0
v -55 -5 0
v -55 -4 0
v -54 -4 0
v -53 -5 0
v -54 -5 0
v -54 -4 0
v -53 -4 0
v -52 -5 0
v -53 -5 0
v -53 -4 0
v -52 -4 0
v -51 -5 0
v -52 -5 0
v -52 -4 0
v -51 -4 0
v -50 -5 0
v -51 -5 0
v -51 -4 0
v -50 -4 0
v -56 -6 0
v -57 -6 0
v -57 -5 0
v -56 -5 0
v -55 -6 0
v -56 -6 0
v -56 -5 0
v -55 -5 0
v -54 -6 0
v -55 -6 0
v -55 -5 0
v -54 -5 0
v -53 -6 0
v -54 -6 0
v -54 -5 0
v -53 -5 0
v -52 -6 0
v -53 -6 0
v -53 -5 0
v -52 -5 0
v -51 -6 0
v -52 -6 0
v -52 -5 0
v -51 -5 0
v -50 -6 0
v -51 -6 0
v -51 -5 0
v -50 -5 0
v -17 -37 0
v -18 -37 0
v -18 -36 0
v -17 -36 0
v -16 -37 0
v -17 -37 0
v -17 -36 0
v -16 -36 0
v -17 -38 0
v -18 -38 0
v -18 -37 0
v -17 -37 0
v -16 -38 0
v -17 -38 0
v -17 -37 0
v -16 -37 0
v -10 -38 0
v -11 -38 0
v -11 -37 0
v -10 -37 0
v -9 -38 0
v -10 -38 0
v -10 -37 0
v -9 -37 0
v -10 -39 0
v -11 -39 0
v -11 -38 0
v -10 -38 0
v -9 -39 0
v -10 -39 0
v -10 -38 0
v -9 -38 0
v -21 -41 0
v -22 -41 0
v -22 -40 0
v -21 -40 0
v -20 -41 0
v -21 -41 0
v -21 -40 0
v -20 -40 0
v -21 -42 0
v -22 -42 0
v -22 -41 0
v -21 -41 0
v -20 -42 0
v -21 -42 0
v -21 -41 0
v -20 -41 0
v -6 -42 0
v -7 -42 0
v -7 -41 0
v -6 -41 0
v -5 -42 0
v -6 -42 0
v -6 -41 0
v -5 -41 0
v -6 -43 0
v -7 -43 0
v -7 -42 0
v -6 -42 0
v -5 -43 0
v -6 -43 0
v -6 -42 0
v -5 -42 0
v -22 -46 0
v -23 -46 0
v -23 -45 0
v -22 -45 0
v -21 -46 0
v -22 -46 0
v -22 -45 0
v -21 -45 0
v -22 -47 0
v -23 -47 0
v -23 -46 0
v -22 -46 0
v -21 -47 0
v -22 -47 0
v -22 -46 0
v -21 -46 0
v -6 -48 0
v -7 -48 0
v -7 -47 0
v -6 -47 0
v -5 -48 0
v -6 -48 0
v -6 -47 0
v -5 -47 0
v -6 -49 0
v -7 -49 0
v -7 -48 0
v -6 -48 0
v -5 -49 0
v -6 -49 0
v -6 -48 0
v -5 -48 0
v -12 -51 0
v -13 -51 0
v -13 -50 0
v -12 -50 0
v -11 -51 0
v -12 -51 0
v -12 -50 0
v -11 -50 0
v -10 -51 0
v -11 -51 0
v -11 -50 0
v -10 -50 0
v -22 -52 0
v -23 -52 0
v -23 -51 0
v -22 -51 0
v -21 -52 0
v -22 -52 0
v -22 -51 0
v -21 -51 0
v -13 -52 0
v -14 -52 0
v -14 -51 0
v -13 -51 0
v -12 -52 0
v -13 -52 0
v -13 -51 0
v -12 -51 0
v -11 -52 0
v -12 -52 0
v -12 -51 0
v -11 -51 0
v -10 -52 0
v -11 -52 0
v -11 -51 0
v -10 -51 0
v -9 -52 0
v -10 -52 0
v -10 -51 0
v -9 -51 0
v -22 -53 0
v -23 -53 0
v -23 -52 0
v -22 -52 0
v -21 -53 0
v -22 -53 0
v -22 -52 0
v -21 -52 0
v -20 -53 0
v -21 -53 0
v -21 -52 0
v -20 -52 0
v -19 -53 0
v -20 -53 0
v -20 -52 0
v -19 -52 0
v -18 -53 0
v -19 -53 0
v -19 -52 0
v -18 -52 0
v -17 -53 0
v -18 -53 0
v -18 -52 0
v -17 -52 0
v -16 -53 0
v -17 -53 0
v -17 -52 0
v -16 -52 0
v -15 -53 0
v -16 -53 0
v -16 -52 0
v -15 -52 0
v -14 -53 0
v -15 -53 0
v -15 -52 0
v -14 -52 0
v -13 -53 0
v -14 -53 0
v -14 -52 0
v -13 -52 0
v -12 -53 0
v -13 -53 0
v -13 -52 0
v -12 -52 0
v -11 -53 0
v -12 -53 0
v -12 -52 0
v -11 -52 0
v -10 -53 0
v -11 -53 0
v -11 -52 0
v -10 -52 0
v -9 -53 0
v -10 -53 0
v -10 -52 0
v -9 -52 0
v -8 -53 0
v -9 -53 0
v -9 -52 0
v -8 -52 0
v -21 -54 0
v -22 -54 0
v -22 -53 0
v -21 -53 0
v -20 -54 0
v -21 -54 0
v -21 -53 0
v -20 -53 0
v -19 -54 0
v -20 -54 0
v -20 -53 0
v -19 -53 0
v -18 -54 0
v -19 -54 0
v -19 -53 0
v -18 -53 0
v -17 -54 0
v -18 -54 0
v -18 -53 0
v -17 -53 0
v -16 -54 0
v -17 -54 0
v -17 -53 0
v -16 -53 0
v -15 -54 0
v -16 -54 0
v -16 -53 0
v -15 -53 0
v -14 -54 0
v -15 -54 0
v -15 -53 0
v -14 -53 0
v -13 -54 0
v -14 -54 0
v -14 -53 0
v -13 -53 0
v -12 -54 0
v -13 -54 0
v -13 -53 0
v -12 -53 0
v -11 -54 0
v -12 -54 0
v -12 -53 0
v -11 -53 0
v -10 -54 0
v -11 -54 0
v -11 -53 0
v -10 -53 0
v -9 -54 0
v -10 -54 0
v -10 -53 0
v -9 -53 0
v -8 -54 0
v -9 -54 0
v -9 -53 0
v -8 -53 0
v -13 -55 0
v -14 -55 0
v -14 -54 0
v -13 -54 0
v -12 -55 0
v -13 -55 0
v -13 -54 0
v -12 -54 0
v -11 -55 0
v -12 -55 0
v -12 -54 0
v -11 -54 0
v -10 -55 0
v -11 -55 0
v -11 -54 0
v -10 -54 0
v -9 -55 0
v -10 -55 0
v -10 -54 0
v -9 -54 0
v -12 -56 0
v -13 -56 0
v -13 -55 0
v -12 -55 0
v -11 -56 0
v -12 -56 0
v -12 -55 0
v -11 -55 0
v -10 -56 0
v -11 -56 0
v -11 -55 0
v -10 -55 0
v -33 -83 0
v -34 -83 0
v -34 -82 0
v -33 -82 0
v -32 -83 0
v -33 -83 0
v -33 -82 0
v -32 -82 0
v -34 -84 0
v -35 -84 0
v -35 -83 0
v -34 -83 0
v -33 -84 0
v -34 -84 0
v -34 -83 0
v -33 -83 0
v -32 -84 0
v -33 -84 0
v -33 -83 0
v -32 -83 0
v -31 -84 0
v -32 -84 0
v -32 -83 0
v -31 -83 0
v -35 -85 0
v -36 -85 0
v -36 -84 0
v -35 -84 0
v -34 -85 0
v -35 -85 0
v -35 -84 0
v -34 -84 0
v -33 -85 0
v -34 -85 0
v -34 -84 0
v -33 -84 0
v -32 -85 0
v -33 -85 0
v -33 -84 0
v -32 -84 0
v -31 -85 0
v -32 -85 0
v -32 -84 0
v -31 -84 0
v -30 -85 0
v -31 -85 0
v -31 -84 0
v -30 -84 0
v -35 -86 0
v -36 -86 0
v -36 -85 0
v -35 -85 0
v -34 -86 0
v -35 -86 0
v -35 -85 0
v -34 -85 0
v -33 -86 0
v -34 -86 0
v -34 -85 0
v -33 -85 0
v -32 -86 0
v -33 -86 0
v -33 -85 0
v -32 -85 0
v -31 -86 0
v -32 -86 0
v -32 -85 0
v -31 -85 0
v -30 -86 0
v -31 -86 0
v -31 -85 0
v -30 -85 0
v -35 -87 0
v -36 -87 0
v -36 -86 0
v -35 -86 0
v -34 -87 0
v -35 -87 0
v -35 -86 0
v -34 -86 0
v -33 -87 0
v -34 -87 0
v -34 -86 0
v -33 -86 0
v -32 -87 0
v -33 -87 0
v -33 -86 0
v -32 -86 0
v -31 -87 0
v -32 -87 0
v -32 -86 0
v -31 -86 0
v -30 -87 0
v -31 -87 0
v -31 -86 0
v -30 -86 0
v -35 -88 0
v -36 -88 0
v -36 -87 0
v -35 -87 0
v -34 -88 0
v -35 -88 0
v -35 -87 0
v -34 -87 0
v -33 -88 0
v -34 -88 0
v -34 -87 0
v -33 -87 0
v -32 -88 0
v -33 -88 0
v -33 -87 0
v -32 -87 0
v -31 -88 0
v -32 -88 0
v -32 -87 0
v -31 -87 0
v -30 -88 0
v -31 -88 0
v -31 -87 0
v -30 -87 0
v -35 -89 0
v -36 -89 0
v -36 -88 0
v -35 -88 0
v -34 -89 0
v -35 -89 0
v -35 -88 0
v -34 -88 0
v -33 -89 0
v -34 -89 0
v -34 -88 0
v -33 -88 0
v -32 -89 0
v -33 -89 0
v -33 -88 0
v -32 -88 0
v -31 -89 0
v -32 -89 0
v -32 -88 0
v -31 -88 0
v -30 -89 0
v -31 -89 0
v -31 -88 0
v -30 -88 0
v -35 -90 0
v -36 -90 0
v -36 -89 0
v -35 -89 0
v -34 -90 0
v -35 -90 0
v -35 -89 0
v -34 -89 0
v -33 -90 0
v -34 -90 0
v -34 -89 0
v -33 -89 0
v -32 -90 0
v -33 -90 0
v -33 -89 0
v -32 -89 0
v -31 -90 0
v -32 -90 0
v -32 -89 0
v -31 -89 0
v -30 -90 0
v -31 -90 0
v -31 -89 0
v -30 -89 0
v -35 -91 0
v -36 -91 0
v -36 -90 0
v -35 -90 0
v -34 -91 0
v -35 -91 0
v -35 -90 0
v -34 -90 0
v -33 -91 0
v -34 -91 0
v -34 -90 0
v -33 -90 0
v -32 -91 0
v -33 -91 0
v -33 -90 0
v -32 -90 0
v -31 -91 0
v -32 -91 0
v -32 -90 0
v -31 -90 0
v -30 -91 0
v -31 -91 0
v -31 -90 0
v -30 -90 0
v -35 -92 0
v -36 -92 0
v -36 -91 0
v -35 -91 0
v -34 -92 0
v -35 -92 0
v -35 -91 0
v -34 -91 0
v -33 -92 0
v -34 -92 0
v -34 -91 0
v -33 -91 0
v -32 -92 0
v -33 -92 0
v -33 -91 0
v -32 -91 0
v -31 -92 0
v -32 -92 0
v -32 -91 0
v -31 -91 0
v -30 -92 0
v -31 -92 0
v -31 -91 0
v -30 -91 0
v -35 -93 0
v -36 -93 0
v -36 -92 0
v -35 -92 0
v -34 -93 0
v -35 -93 0
v -35 -92 0
v -34 -92 0
v -33 -93 0
v -34 -93 0
v -34 -92 0
v -33 -92 0
v -32 -93 0
v -33 -93 0
v -33 -92 0
v -32 -92 0
v -31 -93 0
v -32 -93 0
v -32 -92 0
v -31 -92 0
v -30 -93 0
v -31 -93 0
v -31 -92 0
v -30 -92 0

# Texture cooridinates (Count = 50)
vt 0.625 0.375
vt 0.75 0.375
vt 0.75 0.5
vt 0.625 0.5
vt 0.75 0.625
vt 0.875 0.625
vt 0.875 0.75
vt 0.75 0.75
vt 0.25 0.375
vt 0.375 0.375
vt 0.375 0.5
vt 0.25 0.5
vt 1 0.625
vt 1 0.75
vt 0.375 0.625
vt 0.5 0.625
vt 0.5 0.75
vt 0.375 0.75
vt 0.625 0.625
vt 0.625 0.75
vt 0.5 0.375
vt 0.5 0.5
vt 0.25 0.75
vt 0.375 0.875
vt 0.25 0.875
vt 0.625 0.875
vt 0.5 0.875
vt 0.125 0.75
vt 0.125 0.875
vt 0.5 1
vt 0.375 1
vt 0.75 0.875
vt 0 0.875
vt 0.125 1
vt 0 1
vt 0.875 0.875
vt 0.25 1
vt 0 0.625
vt 0.125 0.625
vt 0 0.75
vt 1 0.875
vt 0.875 1
vt 0.75 1
vt 1 1
vt 0.625 1
vt 0 0.375
vt 0.125 0.375
vt 0.125 0.5
vt 0 0.5
vt 0.875 0.5

# Normal
vn 0 0 -1

# Mesh description
g forest1_mesh_0011

# Faces
f 1/1/1 2/2/1 3/3/1 4/4/1
f 5/5/1 6/6/1 7/7/1 8/8/1
f 9/5/1 10/6/1 11/7/1 12/8/1
f 13/5/1 14/6/1 15/7/1 16/8/1
f 17/5/1 18/6/1 19/7/1 20/8/1
f 21/5/1 22/6/1 23/7/1 24/8/1
f 25/9/1 26/10/1 27/11/1 28/12/1
f 29/6/1 30/13/1 31/14/1 32/7/1
f 33/15/1 34/16/1 35/17/1 36/18/1
f 37/15/1 38/16/1 39/17/1 40/18/1
f 41/15/1 42/16/1 43/17/1 44/18/1
f 45/15/1 46/16/1 47/17/1 48/18/1
f 49/15/1 50/16/1 51/17/1 52/18/1
f 53/16/1 54/19/1 55/20/1 56/17/1
f 57/21/1 58/1/1 59/4/1 60/22/1
f 61/19/1 62/5/1 63/8/1 64/20/1
f 65/19/1 66/5/1 67/8/1 68/20/1
f 69/19/1 70/5/1 71/8/1 72/20/1
f 73/19/1 74/5/1 75/8/1 76/20/1
f 77/19/1 78/5/1 79/8/1 80/20/1
f 81/10/1 82/21/1 83/22/1 84/11/1
f 85/23/1 86/18/1 87/24/1 88/25/1
f 89/17/1 90/20/1 91/26/1 92/27/1
f 93/28/1 94/23/1 95/25/1 96/29/1
f 97/18/1 98/17/1 99/27/1 100/24/1
f 101/23/1 102/18/1 103/24/1 104/25/1
f 105/17/1 106/20/1 107/26/1 108/27/1
f 109/28/1 110/23/1 111/25/1 112/29/1
f 113/18/1 114/17/1 115/27/1 116/24/1
f 117/23/1 118/18/1 119/24/1 120/25/1
f 121/17/1 122/20/1 123/26/1 124/27/1
f 125/28/1 126/23/1 127/25/1 128/29/1
f 129/18/1 130/17/1 131/27/1 132/24/1
f 133/23/1 134/18/1 135/24/1 136/25/1
f 137/17/1 138/20/1 139/26/1 140/27/1
f 141/28/1 142/23/1 143/25/1 144/29/1
f 145/18/1 146/17/1 147/27/1 148/24/1
f 149/23/1 150/18/1 151/24/1 152/25/1
f 153/17/1 154/20/1 155/26/1 156/27/1
f 157/28/1 158/23/1 159/25/1 160/29/1
f 161/18/1 162/17/1 163/27/1 164/24/1
f 165/23/1 166/18/1 167/24/1 168/25/1
f 169/17/1 170/20/1 171/26/1 172/27/1
f 173/28/1 174/23/1 175/25/1 176/29/1
f 177/18/1 178/17/1 179/27/1 180/24/1
f 181/23/1 182/18/1 183/24/1 184/25/1
f 185/24/1 186/27/1 187/30/1 188/31/1
f 189/17/1 190/20/1 191/26/1 192/27/1
f 193/23/1 194/18/1 195/24/1 196/25/1
f 197/17/1 198/20/1 199/26/1 200/27/1
f 201/23/1 202/18/1 203/24/1 204/25/1
f 205/20/1 206/8/1 207/32/1 208/26/1
f 209/33/1 210/29/1 211/34/1 212/35/1
f 213/8/1 214/7/1 215/36/1 216/32/1
f 217/17/1 218/20/1 219/26/1 220/27/1
f 221/28/1 222/23/1 223/25/1 224/29/1
f 225/8/1 226/7/1 227/36/1 228/32/1
f 229/24/1 230/27/1 231/30/1 232/31/1
f 233/24/1 234/27/1 235/30/1 236/31/1
f 237/24/1 238/27/1 239/30/1 240/31/1
f 241/24/1 242/27/1 243/30/1 244/31/1
f 245/24/1 246/27/1 247/30/1 248/31/1
f 249/24/1 250/27/1 251/30/1 252/31/1
f 253/24/1 254/27/1 255/30/1 256/31/1
f 257/20/1 258/8/1 259/32/1 260/26/1
f 261/33/1 262/29/1 263/34/1 264/35/1
f 265/33/1 266/29/1 267/34/1 268/35/1
f 269/33/1 270/29/1 271/34/1 272/35/1
f 273/8/1 274/7/1 275/36/1 276/32/1
f 277/17/1 278/20/1 279/26/1 280/27/1
f 281/28/1 282/23/1 283/25/1 284/29/1
f 285/25/1 286/24/1 287/31/1 288/37/1
f 289/25/1 290/24/1 291/31/1 292/37/1
f 293/25/1 294/24/1 295/31/1 296/37/1
f 297/25/1 298/24/1 299/31/1 300/37/1
f 301/25/1 302/24/1 303/31/1 304/37/1
f 305/25/1 306/24/1 307/31/1 308/37/1
f 309/25/1 310/24/1 311/31/1 312/37/1
f 313/38/1 314/39/1 315/28/1 316/40/1
f 317/33/1 318/29/1 319/34/1 320/35/1
f 321/33/1 322/29/1 323/34/1 324/35/1
f 325/33/1 326/29/1 327/34/1 328/35/1
f 329/7/1 330/14/1 331/41/1 332/36/1
f 333/18/1 334/17/1 335/27/1 336/24/1
f 337/28/1 338/23/1 339/25/1 340/29/1
f 341/38/1 342/39/1 343/28/1 344/40/1
f 345/33/1 346/29/1 347/34/1 348/35/1
f 349/7/1 350/14/1 351/41/1 352/36/1
f 353/32/1 354/36/1 355/42/1 356/43/1
f 357/28/1 358/23/1 359/25/1 360/29/1
f 361/25/1 362/24/1 363/31/1 364/37/1
f 365/18/1 366/17/1 367/27/1 368/24/1
f 369/36/1 370/41/1 371/44/1 372/42/1
f 373/26/1 374/32/1 375/43/1 376/45/1
f 377/36/1 378/41/1 379/44/1 380/42/1
f 381/33/1 382/29/1 383/34/1 384/35/1
f 385/33/1 386/29/1 387/34/1 388/35/1
f 389/26/1 390/32/1 391/43/1 392/45/1
f 393/36/1 394/41/1 395/44/1 396/42/1
f 397/33/1 398/29/1 399/34/1 400/35/1
f 401/33/1 402/29/1 403/34/1 404/35/1
f 405/33/1 406/29/1 407/34/1 408/35/1
f 409/33/1 410/29/1 411/34/1 412/35/1
f 413/26/1 414/32/1 415/43/1 416/45/1
f 417/27/1 418/26/1 419/45/1 420/30/1
f 421/33/1 422/29/1 423/34/1 424/35/1
f 425/33/1 426/29/1 427/34/1 428/35/1
f 429/33/1 430/29/1 431/34/1 432/35/1
f 433/33/1 434/29/1 435/34/1 436/35/1
f 437/29/1 438/25/1 439/37/1 440/34/1
f 441/27/1 442/26/1 443/45/1 444/30/1
f 445/33/1 446/29/1 447/34/1 448/35/1
f 449/33/1 450/29/1 451/34/1 452/35/1
f 453/33/1 454/29/1 455/34/1 456/35/1
f 457/33/1 458/29/1 459/34/1 460/35/1
f 461/29/1 462/25/1 463/37/1 464/34/1
f 465/27/1 466/26/1 467/45/1 468/30/1
f 469/33/1 470/29/1 471/34/1 472/35/1
f 473/33/1 474/29/1 475/34/1 476/35/1
f 477/33/1 478/29/1 479/34/1 480/35/1
f 481/33/1 482/29/1 483/34/1 484/35/1
f 485/29/1 486/25/1 487/37/1 488/34/1
f 489/27/1 490/26/1 491/45/1 492/30/1
f 493/33/1 494/29/1 495/34/1 496/35/1
f 497/33/1 498/29/1 499/34/1 500/35/1
f 501/33/1 502/29/1 503/34/1 504/35/1
f 505/33/1 506/29/1 507/34/1 508/35/1
f 509/29/1 510/25/1 511/37/1 512/34/1
f 513/27/1 514/26/1 515/45/1 516/30/1
f 517/33/1 518/29/1 519/34/1 520/35/1
f 521/33/1 522/29/1 523/34/1 524/35/1
f 525/33/1 526/29/1 527/34/1 528/35/1
f 529/33/1 530/29/1 531/34/1 532/35/1
f 533/29/1 534/25/1 535/37/1 536/34/1
f 537/27/1 538/26/1 539/45/1 540/30/1
f 541/33/1 542/29/1 543/34/1 544/35/1
f 545/46/1 546/47/1 547/48/1 548/49/1
f 549/3/1 550/50/1 551/6/1 552/5/1
f 553/33/1 554/29/1 555/34/1 556/35/1
f 557/29/1 558/25/1 559/37/1 560/34/1
f 561/27/1 562/26/1 563/45/1 564/30/1
f 565/46/1 566/47/1 567/48/1 568/49/1
f 569/15/1 570/16/1 571/17/1 572/18/1
f 573/15/1 574/16/1 575/17/1 576/18/1
f 577/3/1 578/50/1 579/6/1 580/5/1
f 581/29/1 582/25/1 583/37/1 584/34/1
f 585/46/1 586/47/1 587/48/1 588/49/1
f 589/15/1 590/16/1 591/17/1 592/18/1
f 593/15/1 594/16/1 595/17/1 596/18/1
f 597/15/1 598/16/1 599/17/1 600/18/1
f 601/15/1 602/16/1 603/17/1 604/18/1
f 605/3/1 606/50/1 607/6/1 608/5/1

