# Tiled2Unity generated file. Do not modify by hand.
# Wavefront file for 'forest1_mesh_0004.obj'

# Vertices (Count = 504)
v -56 -6 0
v -57 -6 0
v -57 -5 0
v -56 -5 0
v -55 -6 0
v -56 -6 0
v -56 -5 0
v -55 -5 0
v -54 -6 0
v -55 -6 0
v -55 -5 0
v -54 -5 0
v -53 -6 0
v -54 -6 0
v -54 -5 0
v -53 -5 0
v -52 -6 0
v -53 -6 0
v -53 -5 0
v -52 -5 0
v -51 -6 0
v -52 -6 0
v -52 -5 0
v -51 -5 0
v -50 -6 0
v -51 -6 0
v -51 -5 0
v -50 -5 0
v -56 -7 0
v -57 -7 0
v -57 -6 0
v -56 -6 0
v -55 -7 0
v -56 -7 0
v -56 -6 0
v -55 -6 0
v -54 -7 0
v -55 -7 0
v -55 -6 0
v -54 -6 0
v -53 -7 0
v -54 -7 0
v -54 -6 0
v -53 -6 0
v -52 -7 0
v -53 -7 0
v -53 -6 0
v -52 -6 0
v -51 -7 0
v -52 -7 0
v -52 -6 0
v -51 -6 0
v -50 -7 0
v -51 -7 0
v -51 -6 0
v -50 -6 0
v -56 -8 0
v -57 -8 0
v -57 -7 0
v -56 -7 0
v -55 -8 0
v -56 -8 0
v -56 -7 0
v -55 -7 0
v -54 -8 0
v -55 -8 0
v -55 -7 0
v -54 -7 0
v -53 -8 0
v -54 -8 0
v -54 -7 0
v -53 -7 0
v -51 -8 0
v -52 -8 0
v -52 -7 0
v -51 -7 0
v -50 -8 0
v -51 -8 0
v -51 -7 0
v -50 -7 0
v -17 -38 0
v -18 -38 0
v -18 -37 0
v -17 -37 0
v -16 -38 0
v -17 -38 0
v -17 -37 0
v -16 -37 0
v -17 -39 0
v -18 -39 0
v -18 -38 0
v -17 -38 0
v -16 -39 0
v -17 -39 0
v -17 -38 0
v -16 -38 0
v -10 -39 0
v -11 -39 0
v -11 -38 0
v -10 -38 0
v -9 -39 0
v -10 -39 0
v -10 -38 0
v -9 -38 0
v -17 -40 0
v -18 -40 0
v -18 -39 0
v -17 -39 0
v -16 -40 0
v -17 -40 0
v -17 -39 0
v -16 -39 0
v -10 -40 0
v -11 -40 0
v -11 -39 0
v -10 -39 0
v -9 -40 0
v -10 -40 0
v -10 -39 0
v -9 -39 0
v -10 -41 0
v -11 -41 0
v -11 -40 0
v -10 -40 0
v -9 -41 0
v -10 -41 0
v -10 -40 0
v -9 -40 0
v -21 -42 0
v -22 -42 0
v -22 -41 0
v -21 -41 0
v -20 -42 0
v -21 -42 0
v -21 -41 0
v -20 -41 0
v -21 -43 0
v -22 -43 0
v -22 -42 0
v -21 -42 0
v -20 -43 0
v -21 -43 0
v -21 -42 0
v -20 -42 0
v -6 -43 0
v -7 -43 0
v -7 -42 0
v -6 -42 0
v -5 -43 0
v -6 -43 0
v -6 -42 0
v -5 -42 0
v -21 -44 0
v -22 -44 0
v -22 -43 0
v -21 -43 0
v -20 -44 0
v -21 -44 0
v -21 -43 0
v -20 -43 0
v -6 -44 0
v -7 -44 0
v -7 -43 0
v -6 -43 0
v -5 -44 0
v -6 -44 0
v -6 -43 0
v -5 -43 0
v -6 -45 0
v -7 -45 0
v -7 -44 0
v -6 -44 0
v -5 -45 0
v -6 -45 0
v -6 -44 0
v -5 -44 0
v -22 -47 0
v -23 -47 0
v -23 -46 0
v -22 -46 0
v -21 -47 0
v -22 -47 0
v -22 -46 0
v -21 -46 0
v -22 -48 0
v -23 -48 0
v -23 -47 0
v -22 -47 0
v -21 -48 0
v -22 -48 0
v -22 -47 0
v -21 -47 0
v -22 -49 0
v -23 -49 0
v -23 -48 0
v -22 -48 0
v -21 -49 0
v -22 -49 0
v -22 -48 0
v -21 -48 0
v -6 -49 0
v -7 -49 0
v -7 -48 0
v -6 -48 0
v -5 -49 0
v -6 -49 0
v -6 -48 0
v -5 -48 0
v -6 -50 0
v -7 -50 0
v -7 -49 0
v -6 -49 0
v -5 -50 0
v -6 -50 0
v -6 -49 0
v -5 -49 0
v -6 -51 0
v -7 -51 0
v -7 -50 0
v -6 -50 0
v -5 -51 0
v -6 -51 0
v -6 -50 0
v -5 -50 0
v -22 -54 0
v -23 -54 0
v -23 -53 0
v -22 -53 0
v -21 -54 0
v -22 -54 0
v -22 -53 0
v -21 -53 0
v -20 -54 0
v -21 -54 0
v -21 -53 0
v -20 -53 0
v -19 -54 0
v -20 -54 0
v -20 -53 0
v -19 -53 0
v -18 -54 0
v -19 -54 0
v -19 -53 0
v -18 -53 0
v -17 -54 0
v -18 -54 0
v -18 -53 0
v -17 -53 0
v -16 -54 0
v -17 -54 0
v -17 -53 0
v -16 -53 0
v -15 -54 0
v -16 -54 0
v -16 -53 0
v -15 -53 0
v -14 -54 0
v -15 -54 0
v -15 -53 0
v -14 -53 0
v -8 -54 0
v -9 -54 0
v -9 -53 0
v -8 -53 0
v -22 -55 0
v -23 -55 0
v -23 -54 0
v -22 -54 0
v -21 -55 0
v -22 -55 0
v -22 -54 0
v -21 -54 0
v -20 -55 0
v -21 -55 0
v -21 -54 0
v -20 -54 0
v -17 -55 0
v -18 -55 0
v -18 -54 0
v -17 -54 0
v -15 -55 0
v -16 -55 0
v -16 -54 0
v -15 -54 0
v -14 -55 0
v -15 -55 0
v -15 -54 0
v -14 -54 0
v -13 -55 0
v -14 -55 0
v -14 -54 0
v -13 -54 0
v -8 -55 0
v -9 -55 0
v -9 -54 0
v -8 -54 0
v -21 -56 0
v -22 -56 0
v -22 -55 0
v -21 -55 0
v -17 -56 0
v -18 -56 0
v -18 -55 0
v -17 -55 0
v -16 -56 0
v -17 -56 0
v -17 -55 0
v -16 -55 0
v -14 -56 0
v -15 -56 0
v -15 -55 0
v -14 -55 0
v -13 -56 0
v -14 -56 0
v -14 -55 0
v -13 -55 0
v -12 -56 0
v -13 -56 0
v -13 -55 0
v -12 -55 0
v -11 -56 0
v -12 -56 0
v -12 -55 0
v -11 -55 0
v -10 -56 0
v -11 -56 0
v -11 -55 0
v -10 -55 0
v -8 -56 0
v -9 -56 0
v -9 -55 0
v -8 -55 0
v -13 -57 0
v -14 -57 0
v -14 -56 0
v -13 -56 0
v -12 -57 0
v -13 -57 0
v -13 -56 0
v -12 -56 0
v -10 -57 0
v -11 -57 0
v -11 -56 0
v -10 -56 0
v -9 -57 0
v -10 -57 0
v -10 -56 0
v -9 -56 0
v -12 -58 0
v -13 -58 0
v -13 -57 0
v -12 -57 0
v -11 -58 0
v -12 -58 0
v -12 -57 0
v -11 -57 0
v -10 -58 0
v -11 -58 0
v -11 -57 0
v -10 -57 0
v -33 -91 0
v -34 -91 0
v -34 -90 0
v -33 -90 0
v -32 -91 0
v -33 -91 0
v -33 -90 0
v -32 -90 0
v -34 -92 0
v -35 -92 0
v -35 -91 0
v -34 -91 0
v -33 -92 0
v -34 -92 0
v -34 -91 0
v -33 -91 0
v -32 -92 0
v -33 -92 0
v -33 -91 0
v -32 -91 0
v -31 -92 0
v -32 -92 0
v -32 -91 0
v -31 -91 0
v -35 -93 0
v -36 -93 0
v -36 -92 0
v -35 -92 0
v -34 -93 0
v -35 -93 0
v -35 -92 0
v -34 -92 0
v -33 -93 0
v -34 -93 0
v -34 -92 0
v -33 -92 0
v -32 -93 0
v -33 -93 0
v -33 -92 0
v -32 -92 0
v -31 -93 0
v -32 -93 0
v -32 -92 0
v -31 -92 0
v -30 -93 0
v -31 -93 0
v -31 -92 0
v -30 -92 0
v -35 -94 0
v -36 -94 0
v -36 -93 0
v -35 -93 0
v -34 -94 0
v -35 -94 0
v -35 -93 0
v -34 -93 0
v -33 -94 0
v -34 -94 0
v -34 -93 0
v -33 -93 0
v -32 -94 0
v -33 -94 0
v -33 -93 0
v -32 -93 0
v -31 -94 0
v -32 -94 0
v -32 -93 0
v -31 -93 0
v -30 -94 0
v -31 -94 0
v -31 -93 0
v -30 -93 0
v -35 -95 0
v -36 -95 0
v -36 -94 0
v -35 -94 0
v -34 -95 0
v -35 -95 0
v -35 -94 0
v -34 -94 0
v -33 -95 0
v -34 -95 0
v -34 -94 0
v -33 -94 0
v -32 -95 0
v -33 -95 0
v -33 -94 0
v -32 -94 0
v -31 -95 0
v -32 -95 0
v -32 -94 0
v -31 -94 0
v -30 -95 0
v -31 -95 0
v -31 -94 0
v -30 -94 0
v -35 -96 0
v -36 -96 0
v -36 -95 0
v -35 -95 0
v -34 -96 0
v -35 -96 0
v -35 -95 0
v -34 -95 0
v -33 -96 0
v -34 -96 0
v -34 -95 0
v -33 -95 0
v -32 -96 0
v -33 -96 0
v -33 -95 0
v -32 -95 0
v -31 -96 0
v -32 -96 0
v -32 -95 0
v -31 -95 0
v -30 -96 0
v -31 -96 0
v -31 -95 0
v -30 -95 0
v -35 -97 0
v -36 -97 0
v -36 -96 0
v -35 -96 0
v -34 -97 0
v -35 -97 0
v -35 -96 0
v -34 -96 0
v -33 -97 0
v -34 -97 0
v -34 -96 0
v -33 -96 0
v -32 -97 0
v -33 -97 0
v -33 -96 0
v -32 -96 0
v -31 -97 0
v -32 -97 0
v -32 -96 0
v -31 -96 0
v -30 -97 0
v -31 -97 0
v -31 -96 0
v -30 -96 0

# Texture cooridinates (Count = 35)
vt 0.25 0.25
vt 0.375 0.25
vt 0.375 0.375
vt 0.25 0.375
vt 0.75 0.375
vt 0.875 0.375
vt 0.875 0.5
vt 0.75 0.5
vt 1 0.375
vt 1 0.5
vt 0.875 0.625
vt 1 0.625
vt 1 0.75
vt 0.875 0.75
vt 0.5 0.625
vt 0.625 0.625
vt 0.625 0.75
vt 0.5 0.75
vt 0.5 0.375
vt 0.625 0.375
vt 0.625 0.5
vt 0.5 0.5
vt 0.375 0.5
vt 0 0.875
vt 0.125 0.875
vt 0.125 1
vt 0 1
vt 0.5 0.875
vt 0.625 0.875
vt 0.625 1
vt 0.5 1
vt 0.25 0.875
vt 0.25 1
vt 0.375 0.625
vt 0.375 0.75

# Normal
vn 0 0 -1

# Mesh description
g forest1_mesh_0004

# Faces
f 1/1/1 2/2/1 3/3/1 4/4/1
f 5/5/1 6/6/1 7/7/1 8/8/1
f 9/5/1 10/6/1 11/7/1 12/8/1
f 13/5/1 14/6/1 15/7/1 16/8/1
f 17/5/1 18/6/1 19/7/1 20/8/1
f 21/5/1 22/6/1 23/7/1 24/8/1
f 25/6/1 26/9/1 27/10/1 28/7/1
f 29/1/1 30/2/1 31/3/1 32/4/1
f 33/5/1 34/6/1 35/7/1 36/8/1
f 37/5/1 38/6/1 39/7/1 40/8/1
f 41/5/1 42/6/1 43/7/1 44/8/1
f 45/5/1 46/6/1 47/7/1 48/8/1
f 49/5/1 50/6/1 51/7/1 52/8/1
f 53/6/1 54/9/1 55/10/1 56/7/1
f 57/1/1 58/2/1 59/3/1 60/4/1
f 61/5/1 62/6/1 63/7/1 64/8/1
f 65/5/1 66/6/1 67/7/1 68/8/1
f 69/5/1 70/6/1 71/7/1 72/8/1
f 73/5/1 74/6/1 75/7/1 76/8/1
f 77/6/1 78/9/1 79/10/1 80/7/1
f 81/11/1 82/12/1 83/13/1 84/14/1
f 85/15/1 86/16/1 87/17/1 88/18/1
f 89/11/1 90/12/1 91/13/1 92/14/1
f 93/15/1 94/16/1 95/17/1 96/18/1
f 97/11/1 98/12/1 99/13/1 100/14/1
f 101/15/1 102/16/1 103/17/1 104/18/1
f 105/19/1 106/20/1 107/21/1 108/22/1
f 109/3/1 110/19/1 111/22/1 112/23/1
f 113/11/1 114/12/1 115/13/1 116/14/1
f 117/15/1 118/16/1 119/17/1 120/18/1
f 121/19/1 122/20/1 123/21/1 124/22/1
f 125/3/1 126/19/1 127/22/1 128/23/1
f 129/11/1 130/12/1 131/13/1 132/14/1
f 133/15/1 134/16/1 135/17/1 136/18/1
f 137/11/1 138/12/1 139/13/1 140/14/1
f 141/15/1 142/16/1 143/17/1 144/18/1
f 145/11/1 146/12/1 147/13/1 148/14/1
f 149/15/1 150/16/1 151/17/1 152/18/1
f 153/19/1 154/20/1 155/21/1 156/22/1
f 157/3/1 158/19/1 159/22/1 160/23/1
f 161/11/1 162/12/1 163/13/1 164/14/1
f 165/15/1 166/16/1 167/17/1 168/18/1
f 169/19/1 170/20/1 171/21/1 172/22/1
f 173/3/1 174/19/1 175/22/1 176/23/1
f 177/11/1 178/12/1 179/13/1 180/14/1
f 181/15/1 182/16/1 183/17/1 184/18/1
f 185/11/1 186/12/1 187/13/1 188/14/1
f 189/15/1 190/16/1 191/17/1 192/18/1
f 193/19/1 194/20/1 195/21/1 196/22/1
f 197/3/1 198/19/1 199/22/1 200/23/1
f 201/11/1 202/12/1 203/13/1 204/14/1
f 205/15/1 206/16/1 207/17/1 208/18/1
f 209/11/1 210/12/1 211/13/1 212/14/1
f 213/15/1 214/16/1 215/17/1 216/18/1
f 217/19/1 218/20/1 219/21/1 220/22/1
f 221/3/1 222/19/1 223/22/1 224/23/1
f 225/1/1 226/2/1 227/3/1 228/4/1
f 229/1/1 230/2/1 231/3/1 232/4/1
f 233/5/1 234/6/1 235/7/1 236/8/1
f 237/5/1 238/6/1 239/7/1 240/8/1
f 241/5/1 242/6/1 243/7/1 244/8/1
f 245/5/1 246/6/1 247/7/1 248/8/1
f 249/5/1 250/6/1 251/7/1 252/8/1
f 253/5/1 254/6/1 255/7/1 256/8/1
f 257/5/1 258/6/1 259/7/1 260/8/1
f 261/6/1 262/9/1 263/10/1 264/7/1
f 265/1/1 266/2/1 267/3/1 268/4/1
f 269/1/1 270/2/1 271/3/1 272/4/1
f 273/5/1 274/6/1 275/7/1 276/8/1
f 277/5/1 278/6/1 279/7/1 280/8/1
f 281/5/1 282/6/1 283/7/1 284/8/1
f 285/5/1 286/6/1 287/7/1 288/8/1
f 289/1/1 290/2/1 291/3/1 292/4/1
f 293/6/1 294/9/1 295/10/1 296/7/1
f 297/1/1 298/2/1 299/3/1 300/4/1
f 301/5/1 302/6/1 303/7/1 304/8/1
f 305/5/1 306/6/1 307/7/1 308/8/1
f 309/5/1 310/6/1 311/7/1 312/8/1
f 313/1/1 314/2/1 315/3/1 316/4/1
f 317/1/1 318/2/1 319/3/1 320/4/1
f 321/5/1 322/6/1 323/7/1 324/8/1
f 325/6/1 326/9/1 327/10/1 328/7/1
f 329/6/1 330/9/1 331/10/1 332/7/1
f 333/1/1 334/2/1 335/3/1 336/4/1
f 337/1/1 338/2/1 339/3/1 340/4/1
f 341/6/1 342/9/1 343/10/1 344/7/1
f 345/6/1 346/9/1 347/10/1 348/7/1
f 349/1/1 350/2/1 351/3/1 352/4/1
f 353/5/1 354/6/1 355/7/1 356/8/1
f 357/6/1 358/9/1 359/10/1 360/7/1
f 361/24/1 362/25/1 363/26/1 364/27/1
f 365/24/1 366/25/1 367/26/1 368/27/1
f 369/24/1 370/25/1 371/26/1 372/27/1
f 373/24/1 374/25/1 375/26/1 376/27/1
f 377/24/1 378/25/1 379/26/1 380/27/1
f 381/24/1 382/25/1 383/26/1 384/27/1
f 385/28/1 386/29/1 387/30/1 388/31/1
f 389/24/1 390/25/1 391/26/1 392/27/1
f 393/24/1 394/25/1 395/26/1 396/27/1
f 397/24/1 398/25/1 399/26/1 400/27/1
f 401/24/1 402/25/1 403/26/1 404/27/1
f 405/25/1 406/32/1 407/33/1 408/26/1
f 409/11/1 410/12/1 411/13/1 412/14/1
f 413/34/1 414/15/1 415/18/1 416/35/1
f 417/34/1 418/15/1 419/18/1 420/35/1
f 421/34/1 422/15/1 423/18/1 424/35/1
f 425/34/1 426/15/1 427/18/1 428/35/1
f 429/15/1 430/16/1 431/17/1 432/18/1
f 433/11/1 434/12/1 435/13/1 436/14/1
f 437/34/1 438/15/1 439/18/1 440/35/1
f 441/34/1 442/15/1 443/18/1 444/35/1
f 445/34/1 446/15/1 447/18/1 448/35/1
f 449/34/1 450/15/1 451/18/1 452/35/1
f 453/15/1 454/16/1 455/17/1 456/18/1
f 457/11/1 458/12/1 459/13/1 460/14/1
f 461/34/1 462/15/1 463/18/1 464/35/1
f 465/34/1 466/15/1 467/18/1 468/35/1
f 469/34/1 470/15/1 471/18/1 472/35/1
f 473/34/1 474/15/1 475/18/1 476/35/1
f 477/15/1 478/16/1 479/17/1 480/18/1
f 481/11/1 482/12/1 483/13/1 484/14/1
f 485/34/1 486/15/1 487/18/1 488/35/1
f 489/34/1 490/15/1 491/18/1 492/35/1
f 493/34/1 494/15/1 495/18/1 496/35/1
f 497/34/1 498/15/1 499/18/1 500/35/1
f 501/15/1 502/16/1 503/17/1 504/18/1

