# Tiled2Unity generated file. Do not modify by hand.
# Wavefront file for 'temple_mesh_0005.obj'

# Vertices (Count = 244)
v -15 -11 0
v -16 -11 0
v -16 -10 0
v -15 -10 0
v -14 -11 0
v -15 -11 0
v -15 -10 0
v -14 -10 0
v -13 -11 0
v -14 -11 0
v -14 -10 0
v -13 -10 0
v -12 -11 0
v -13 -11 0
v -13 -10 0
v -12 -10 0
v -11 -11 0
v -12 -11 0
v -12 -10 0
v -11 -10 0
v -10 -11 0
v -11 -11 0
v -11 -10 0
v -10 -10 0
v -25 -12 0
v -26 -12 0
v -26 -11 0
v -25 -11 0
v -24 -12 0
v -25 -12 0
v -25 -11 0
v -24 -11 0
v -23 -12 0
v -24 -12 0
v -24 -11 0
v -23 -11 0
v -22 -12 0
v -23 -12 0
v -23 -11 0
v -22 -11 0
v -16 -12 0
v -17 -12 0
v -17 -11 0
v -16 -11 0
v -15 -12 0
v -16 -12 0
v -16 -11 0
v -15 -11 0
v -14 -12 0
v -15 -12 0
v -15 -11 0
v -14 -11 0
v -12 -12 0
v -13 -12 0
v -13 -11 0
v -12 -11 0
v -11 -12 0
v -12 -12 0
v -12 -11 0
v -11 -11 0
v -10 -12 0
v -11 -12 0
v -11 -11 0
v -10 -11 0
v -9 -12 0
v -10 -12 0
v -10 -11 0
v -9 -11 0
v -25 -13 0
v -26 -13 0
v -26 -12 0
v -25 -12 0
v -24 -13 0
v -25 -13 0
v -25 -12 0
v -24 -12 0
v -23 -13 0
v -24 -13 0
v -24 -12 0
v -23 -12 0
v -22 -13 0
v -23 -13 0
v -23 -12 0
v -22 -12 0
v -21 -13 0
v -22 -13 0
v -22 -12 0
v -21 -12 0
v -20 -13 0
v -21 -13 0
v -21 -12 0
v -20 -12 0
v -19 -13 0
v -20 -13 0
v -20 -12 0
v -19 -12 0
v -18 -13 0
v -19 -13 0
v -19 -12 0
v -18 -12 0
v -17 -13 0
v -18 -13 0
v -18 -12 0
v -17 -12 0
v -16 -13 0
v -17 -13 0
v -17 -12 0
v -16 -12 0
v -15 -13 0
v -16 -13 0
v -16 -12 0
v -15 -12 0
v -14 -13 0
v -15 -13 0
v -15 -12 0
v -14 -12 0
v -13 -13 0
v -14 -13 0
v -14 -12 0
v -13 -12 0
v -12 -13 0
v -13 -13 0
v -13 -12 0
v -12 -12 0
v -11 -13 0
v -12 -13 0
v -12 -12 0
v -11 -12 0
v -10 -13 0
v -11 -13 0
v -11 -12 0
v -10 -12 0
v -9 -13 0
v -10 -13 0
v -10 -12 0
v -9 -12 0
v -25 -14 0
v -26 -14 0
v -26 -13 0
v -25 -13 0
v -23 -14 0
v -24 -14 0
v -24 -13 0
v -23 -13 0
v -22 -14 0
v -23 -14 0
v -23 -13 0
v -22 -13 0
v -20 -14 0
v -21 -14 0
v -21 -13 0
v -20 -13 0
v -19 -14 0
v -20 -14 0
v -20 -13 0
v -19 -13 0
v -18 -14 0
v -19 -14 0
v -19 -13 0
v -18 -13 0
v -16 -14 0
v -17 -14 0
v -17 -13 0
v -16 -13 0
v -15 -14 0
v -16 -14 0
v -16 -13 0
v -15 -13 0
v -11 -14 0
v -12 -14 0
v -12 -13 0
v -11 -13 0
v -10 -14 0
v -11 -14 0
v -11 -13 0
v -10 -13 0
v -9 -14 0
v -10 -14 0
v -10 -13 0
v -9 -13 0
v -25 -15 0
v -26 -15 0
v -26 -14 0
v -25 -14 0
v -24 -15 0
v -25 -15 0
v -25 -14 0
v -24 -14 0
v -22 -15 0
v -23 -15 0
v -23 -14 0
v -22 -14 0
v -21 -15 0
v -22 -15 0
v -22 -14 0
v -21 -14 0
v -20 -15 0
v -21 -15 0
v -21 -14 0
v -20 -14 0
v -19 -15 0
v -20 -15 0
v -20 -14 0
v -19 -14 0
v -18 -15 0
v -19 -15 0
v -19 -14 0
v -18 -14 0
v -16 -15 0
v -17 -15 0
v -17 -14 0
v -16 -14 0
v -10 -15 0
v -11 -15 0
v -11 -14 0
v -10 -14 0
v -9 -15 0
v -10 -15 0
v -10 -14 0
v -9 -14 0
v -25 -16 0
v -26 -16 0
v -26 -15 0
v -25 -15 0
v -24 -16 0
v -25 -16 0
v -25 -15 0
v -24 -15 0
v -9 -16 0
v -10 -16 0
v -10 -15 0
v -9 -15 0
v -25 -17 0
v -26 -17 0
v -26 -16 0
v -25 -16 0
v -24 -17 0
v -25 -17 0
v -25 -16 0
v -24 -16 0
v -9 -17 0
v -10 -17 0
v -10 -16 0
v -9 -16 0

# Texture cooridinates (Count = 36)
vt 0.875 0.75
vt 1 0.75
vt 1 0.875
vt 0.875 0.875
vt 0.25 0.875
vt 0.375 0.875
vt 0.375 1
vt 0.25 1
vt 0 0.625
vt 0.125 0.625
vt 0.125 0.75
vt 0 0.75
vt 0 0.875
vt 0.125 0.875
vt 0.125 1
vt 0 1
vt 0.375 0.75
vt 0.5 0.75
vt 0.5 0.875
vt 0.75 0.375
vt 0.875 0.375
vt 0.875 0.5
vt 0.75 0.5
vt 0.25 0.25
vt 0.375 0.25
vt 0.375 0.375
vt 0.25 0.375
vt 0.25 0.75
vt 1 0.375
vt 1 0.5
vt 0.625 0.875
vt 0.625 1
vt 0.5 1
vt 0.75 0.75
vt 0.75 0.875
vt 0.625 0.75

# Normal
vn 0 0 -1

# Mesh description
g temple_mesh_0005

# Faces
f 1/1/1 2/2/1 3/3/1 4/4/1
f 5/5/1 6/6/1 7/7/1 8/8/1
f 9/5/1 10/6/1 11/7/1 12/8/1
f 13/5/1 14/6/1 15/7/1 16/8/1
f 17/9/1 18/10/1 19/11/1 20/12/1
f 21/13/1 22/14/1 23/15/1 24/16/1
f 25/1/1 26/2/1 27/3/1 28/4/1
f 29/5/1 30/6/1 31/7/1 32/8/1
f 33/5/1 34/6/1 35/7/1 36/8/1
f 37/9/1 38/10/1 39/11/1 40/12/1
f 41/1/1 42/2/1 43/3/1 44/4/1
f 45/17/1 46/18/1 47/19/1 48/6/1
f 49/20/1 50/21/1 51/22/1 52/23/1
f 53/20/1 54/21/1 55/22/1 56/23/1
f 57/24/1 58/25/1 59/26/1 60/27/1
f 61/9/1 62/10/1 63/11/1 64/12/1
f 65/13/1 66/14/1 67/15/1 68/16/1
f 69/14/1 70/5/1 71/8/1 72/15/1
f 73/20/1 74/21/1 75/22/1 76/23/1
f 77/20/1 78/21/1 79/22/1 80/23/1
f 81/11/1 82/28/1 83/5/1 84/14/1
f 85/5/1 86/6/1 87/7/1 88/8/1
f 89/5/1 90/6/1 91/7/1 92/8/1
f 93/5/1 94/6/1 95/7/1 96/8/1
f 97/5/1 98/6/1 99/7/1 100/8/1
f 101/5/1 102/6/1 103/7/1 104/8/1
f 105/17/1 106/18/1 107/19/1 108/6/1
f 109/21/1 110/29/1 111/30/1 112/22/1
f 113/20/1 114/21/1 115/22/1 116/23/1
f 117/20/1 118/21/1 119/22/1 120/23/1
f 121/20/1 122/21/1 123/22/1 124/23/1
f 125/24/1 126/25/1 127/26/1 128/27/1
f 129/24/1 130/25/1 131/26/1 132/27/1
f 133/9/1 134/10/1 135/11/1 136/12/1
f 137/14/1 138/5/1 139/8/1 140/15/1
f 141/20/1 142/21/1 143/22/1 144/23/1
f 145/24/1 146/25/1 147/26/1 148/27/1
f 149/20/1 150/21/1 151/22/1 152/23/1
f 153/20/1 154/21/1 155/22/1 156/23/1
f 157/20/1 158/21/1 159/22/1 160/23/1
f 161/21/1 162/29/1 163/30/1 164/22/1
f 165/21/1 166/29/1 167/30/1 168/22/1
f 169/24/1 170/25/1 171/26/1 172/27/1
f 173/24/1 174/25/1 175/26/1 176/27/1
f 177/19/1 178/31/1 179/32/1 180/33/1
f 181/34/1 182/1/1 183/4/1 184/35/1
f 185/18/1 186/36/1 187/31/1 188/19/1
f 189/24/1 190/25/1 191/26/1 192/27/1
f 193/20/1 194/21/1 195/22/1 196/23/1
f 197/20/1 198/21/1 199/22/1 200/23/1
f 201/20/1 202/21/1 203/22/1 204/23/1
f 205/20/1 206/21/1 207/22/1 208/23/1
f 209/21/1 210/29/1 211/30/1 212/22/1
f 213/24/1 214/25/1 215/26/1 216/27/1
f 217/11/1 218/28/1 219/5/1 220/14/1
f 221/20/1 222/21/1 223/22/1 224/23/1
f 225/21/1 226/29/1 227/30/1 228/22/1
f 229/24/1 230/25/1 231/26/1 232/27/1
f 233/20/1 234/21/1 235/22/1 236/23/1
f 237/21/1 238/29/1 239/30/1 240/22/1
f 241/24/1 242/25/1 243/26/1 244/27/1

