# Tiled2Unity generated file. Do not modify by hand.
# Wavefront file for 'temple_mesh_0008.obj'

# Vertices (Count = 20)
v -11 -13 0
v -12 -13 0
v -12 -12 0
v -11 -12 0
v -22 -14 0
v -23 -14 0
v -23 -13 0
v -22 -13 0
v -16 -14 0
v -17 -14 0
v -17 -13 0
v -16 -13 0
v -20 -15 0
v -21 -15 0
v -21 -14 0
v -20 -14 0
v -18 -15 0
v -19 -15 0
v -19 -14 0
v -18 -14 0

# Texture cooridinates (Count = 6)
vt 0.5 0.6666666
vt 0.6666667 0.6666666
vt 0.6666667 0.8333333
vt 0.5 0.8333333
vt 0.5 0.5
vt 0.6666667 0.5

# Normal
vn 0 0 -1

# Mesh description
g temple_mesh_0008

# Faces
f 1/1/1 2/2/1 3/3/1 4/4/1
f 5/1/1 6/2/1 7/3/1 8/4/1
f 9/1/1 10/2/1 11/3/1 12/4/1
f 13/5/1 14/6/1 15/2/1 16/1/1
f 17/5/1 18/6/1 19/2/1 20/1/1

