# Tiled2Unity generated file. Do not modify by hand.
# Wavefront file for 'temple_mesh_0003.obj'

# Vertices (Count = 16)
v -15 -13 0
v -16 -13 0
v -16 -12 0
v -15 -12 0
v -11 -13 0
v -12 -13 0
v -12 -12 0
v -11 -12 0
v -16 -14 0
v -17 -14 0
v -17 -13 0
v -16 -13 0
v -10 -14 0
v -11 -14 0
v -11 -13 0
v -10 -13 0

# Texture cooridinates (Count = 4)
vt 0.75 0.375
vt 0.875 0.375
vt 0.875 0.5
vt 0.75 0.5

# Normal
vn 0 0 -1

# Mesh description
g temple_mesh_0003

# Faces
f 1/1/1 2/2/1 3/3/1 4/4/1
f 5/1/1 6/2/1 7/3/1 8/4/1
f 9/1/1 10/2/1 11/3/1 12/4/1
f 13/1/1 14/2/1 15/3/1 16/4/1

