# Tiled2Unity generated file. Do not modify by hand.
# Wavefront file for 'house1_mesh_0007.obj'

# Vertices (Count = 40)
v -4 -2 0
v -5 -2 0
v -5 -1 0
v -4 -1 0
v -3 -2 0
v -4 -2 0
v -4 -1 0
v -3 -1 0
v -2 -2 0
v -3 -2 0
v -3 -1 0
v -2 -1 0
v -5 -3 0
v -6 -3 0
v -6 -2 0
v -5 -2 0
v -4 -3 0
v -5 -3 0
v -5 -2 0
v -4 -2 0
v -3 -3 0
v -4 -3 0
v -4 -2 0
v -3 -2 0
v -2 -7 0
v -3 -7 0
v -3 -6 0
v -2 -6 0
v -5 -10 0
v -6 -10 0
v -6 -9 0
v -5 -9 0
v -2 -12 0
v -3 -12 0
v -3 -11 0
v -2 -11 0
v -2 -13 0
v -3 -13 0
v -3 -12 0
v -2 -12 0

# Texture cooridinates (Count = 20)
vt 0.6666667 0.1666667
vt 0.8333333 0.1666667
vt 0.8333333 0.3333333
vt 0.6666667 0.3333333
vt 0.3333333 0.6666666
vt 0.5 0.6666666
vt 0.5 0.8333333
vt 0.3333333 0.8333333
vt 0.6666667 0.6666666
vt 0.6666667 0.8333333
vt 0 0.5
vt 0.1666667 0.5
vt 0.1666667 0.6666666
vt 0 0.6666666
vt 0.5 0.3333333
vt 0.6666667 0.5
vt 0.5 0.5
vt 0.8333333 0.6666666
vt 0.8333333 0.8333333
vt 0.3333333 0.5

# Normal
vn 0 0 -1

# Mesh description
g house1_mesh_0007

# Faces
f 1/1/1 2/2/1 3/3/1 4/4/1
f 5/5/1 6/6/1 7/7/1 8/8/1
f 9/6/1 10/9/1 11/10/1 12/7/1
f 13/11/1 14/12/1 15/13/1 16/14/1
f 17/15/1 18/4/1 19/16/1 20/17/1
f 21/11/1 22/12/1 23/13/1 24/14/1
f 25/9/1 26/18/1 27/19/1 28/10/1
f 29/20/1 30/17/1 31/6/1 32/5/1
f 33/12/1 34/20/1 35/5/1 36/13/1
f 37/12/1 38/20/1 39/5/1 40/13/1

