# Tiled2Unity generated file. Do not modify by hand.
# Wavefront file for 'house1_mesh_0004.obj'

# Vertices (Count = 36)
v -3 -4 0
v -4 -4 0
v -4 -3 0
v -3 -3 0
v -4 -7 0
v -5 -7 0
v -5 -6 0
v -4 -6 0
v -5 -8 0
v -6 -8 0
v -6 -7 0
v -5 -7 0
v -4 -8 0
v -5 -8 0
v -5 -7 0
v -4 -7 0
v -3 -8 0
v -4 -8 0
v -4 -7 0
v -3 -7 0
v -4 -9 0
v -5 -9 0
v -5 -8 0
v -4 -8 0
v -5 -10 0
v -6 -10 0
v -6 -9 0
v -5 -9 0
v -4 -10 0
v -5 -10 0
v -5 -9 0
v -4 -9 0
v -3 -10 0
v -4 -10 0
v -4 -9 0
v -3 -9 0

# Texture cooridinates (Count = 7)
vt 0.6666667 0.25
vt 1 0.25
vt 1 0.5
vt 0.6666667 0.5
vt 0.3333333 0.5
vt 0.6666667 0.75
vt 0.3333333 0.75

# Normal
vn 0 0 -1

# Mesh description
g house1_mesh_0004

# Faces
f 1/1/1 2/2/1 3/3/1 4/4/1
f 5/5/1 6/4/1 7/6/1 8/7/1
f 9/5/1 10/4/1 11/6/1 12/7/1
f 13/5/1 14/4/1 15/6/1 16/7/1
f 17/5/1 18/4/1 19/6/1 20/7/1
f 21/5/1 22/4/1 23/6/1 24/7/1
f 25/5/1 26/4/1 27/6/1 28/7/1
f 29/5/1 30/4/1 31/6/1 32/7/1
f 33/5/1 34/4/1 35/6/1 36/7/1

