# Tiled2Unity generated file. Do not modify by hand.
# Wavefront file for 'house1_mesh_0003.obj'

# Vertices (Count = 44)
v -4 -4 0
v -5 -4 0
v -5 -3 0
v -4 -3 0
v -2 -4 0
v -3 -4 0
v -3 -3 0
v -2 -3 0
v -4 -5 0
v -5 -5 0
v -5 -4 0
v -4 -4 0
v -3 -5 0
v -4 -5 0
v -4 -4 0
v -3 -4 0
v -2 -5 0
v -3 -5 0
v -3 -4 0
v -2 -4 0
v -3 -6 0
v -4 -6 0
v -4 -5 0
v -3 -5 0
v -5 -11 0
v -6 -11 0
v -6 -10 0
v -5 -10 0
v -2 -11 0
v -3 -11 0
v -3 -10 0
v -2 -10 0
v -5 -12 0
v -6 -12 0
v -6 -11 0
v -5 -11 0
v -4 -12 0
v -5 -12 0
v -5 -11 0
v -4 -11 0
v -5 -13 0
v -6 -13 0
v -6 -12 0
v -5 -12 0

# Texture cooridinates (Count = 23)
vt 0 0.8333333
vt 0.1666667 0.8333333
vt 0.1666667 1
vt 0 1
vt 0.3333333 0.8333333
vt 0.3333333 1
vt 0.5 0.5
vt 0.6666667 0.5
vt 0.6666667 0.6666666
vt 0.5 0.6666666
vt 0.5 0.8333333
vt 0.5 1
vt 0.8333333 0.6666666
vt 1 0.6666666
vt 1 0.8333333
vt 0.8333333 0.8333333
vt 0 0.6666666
vt 0.1666667 0.6666666
vt 0.8333333 0.5
vt 1 0.5
vt 0.3333333 0.3333333
vt 0.5 0.3333333
vt 0.3333333 0.5

# Normal
vn 0 0 -1

# Mesh description
g house1_mesh_0003

# Faces
f 1/1/1 2/2/1 3/3/1 4/4/1
f 5/2/1 6/5/1 7/6/1 8/3/1
f 9/1/1 10/2/1 11/3/1 12/4/1
f 13/7/1 14/8/1 15/9/1 16/10/1
f 17/2/1 18/5/1 19/6/1 20/3/1
f 21/5/1 22/11/1 23/12/1 24/6/1
f 25/13/1 26/14/1 27/15/1 28/16/1
f 29/17/1 30/18/1 31/2/1 32/1/1
f 33/19/1 34/20/1 35/14/1 36/13/1
f 37/2/1 38/5/1 39/6/1 40/3/1
f 41/21/1 42/22/1 43/7/1 44/23/1

