# Tiled2Unity generated file. Do not modify by hand.
# Wavefront file for 'house1_mesh_0006.obj'

# Vertices (Count = 152)
v -6 -1 0
v -7 -1 0
v -7 0 0
v -6 0 0
v -5 -1 0
v -6 -1 0
v -6 0 0
v -5 0 0
v -4 -1 0
v -5 -1 0
v -5 0 0
v -4 0 0
v -3 -1 0
v -4 -1 0
v -4 0 0
v -3 0 0
v -2 -1 0
v -3 -1 0
v -3 0 0
v -2 0 0
v -1 -1 0
v -2 -1 0
v -2 0 0
v -1 0 0
v -6 -2 0
v -7 -2 0
v -7 -1 0
v -6 -1 0
v -5 -2 0
v -6 -2 0
v -6 -1 0
v -5 -1 0
v -4 -2 0
v -5 -2 0
v -5 -1 0
v -4 -1 0
v -3 -2 0
v -4 -2 0
v -4 -1 0
v -3 -1 0
v -2 -2 0
v -3 -2 0
v -3 -1 0
v -2 -1 0
v -1 -2 0
v -2 -2 0
v -2 -1 0
v -1 -1 0
v -6 -3 0
v -7 -3 0
v -7 -2 0
v -6 -2 0
v -5 -3 0
v -6 -3 0
v -6 -2 0
v -5 -2 0
v -4 -3 0
v -5 -3 0
v -5 -2 0
v -4 -2 0
v -3 -3 0
v -4 -3 0
v -4 -2 0
v -3 -2 0
v -2 -3 0
v -3 -3 0
v -3 -2 0
v -2 -2 0
v -1 -3 0
v -2 -3 0
v -2 -2 0
v -1 -2 0
v -6 -4 0
v -7 -4 0
v -7 -3 0
v -6 -3 0
v -1 -4 0
v -2 -4 0
v -2 -3 0
v -1 -3 0
v -6 -5 0
v -7 -5 0
v -7 -4 0
v -6 -4 0
v -1 -5 0
v -2 -5 0
v -2 -4 0
v -1 -4 0
v -6 -6 0
v -7 -6 0
v -7 -5 0
v -6 -5 0
v -1 -6 0
v -2 -6 0
v -2 -5 0
v -1 -5 0
v -1 -7 0
v -2 -7 0
v -2 -6 0
v -1 -6 0
v -1 -8 0
v -2 -8 0
v -2 -7 0
v -1 -7 0
v -6 -9 0
v -7 -9 0
v -7 -8 0
v -6 -8 0
v -1 -9 0
v -2 -9 0
v -2 -8 0
v -1 -8 0
v -6 -10 0
v -7 -10 0
v -7 -9 0
v -6 -9 0
v -1 -10 0
v -2 -10 0
v -2 -9 0
v -1 -9 0
v -6 -11 0
v -7 -11 0
v -7 -10 0
v -6 -10 0
v -1 -11 0
v -2 -11 0
v -2 -10 0
v -1 -10 0
v -6 -12 0
v -7 -12 0
v -7 -11 0
v -6 -11 0
v -1 -12 0
v -2 -12 0
v -2 -11 0
v -1 -11 0
v -6 -13 0
v -7 -13 0
v -7 -12 0
v -6 -12 0
v -1 -13 0
v -2 -13 0
v -2 -12 0
v -1 -12 0
v -6 -14 0
v -7 -14 0
v -7 -13 0
v -6 -13 0
v -1 -14 0
v -2 -14 0
v -2 -13 0
v -1 -13 0

# Texture cooridinates (Count = 30)
vt 0 0.875
vt 0.125 0.875
vt 0.125 1
vt 0 1
vt 0.875 0.75
vt 1 0.75
vt 1 0.875
vt 0.875 0.875
vt 0.375 0.625
vt 0.5 0.625
vt 0.5 0.75
vt 0.375 0.75
vt 0 0.625
vt 0.125 0.625
vt 0.125 0.75
vt 0 0.75
vt 0.25 0.875
vt 0.25 1
vt 0.625 0.625
vt 0.75 0.625
vt 0.75 0.75
vt 0.625 0.75
vt 0.5 0.875
vt 0.625 0.875
vt 0.625 1
vt 0.5 1
vt 0.375 0.875
vt 0.25 0.75
vt 0.875 0.625
vt 1 0.625

# Normal
vn 0 0 -1

# Mesh description
g house1_mesh_0006

# Faces
f 1/1/1 2/2/1 3/3/1 4/4/1
f 5/1/1 6/2/1 7/3/1 8/4/1
f 9/1/1 10/2/1 11/3/1 12/4/1
f 13/1/1 14/2/1 15/3/1 16/4/1
f 17/1/1 18/2/1 19/3/1 20/4/1
f 21/1/1 22/2/1 23/3/1 24/4/1
f 25/5/1 26/6/1 27/7/1 28/8/1
f 29/9/1 30/10/1 31/11/1 32/12/1
f 33/9/1 34/10/1 35/11/1 36/12/1
f 37/9/1 38/10/1 39/11/1 40/12/1
f 41/9/1 42/10/1 43/11/1 44/12/1
f 45/13/1 46/14/1 47/15/1 48/16/1
f 49/2/1 50/17/1 51/18/1 52/3/1
f 53/19/1 54/20/1 55/21/1 56/22/1
f 57/19/1 58/20/1 59/21/1 60/22/1
f 61/19/1 62/20/1 63/21/1 64/22/1
f 65/19/1 66/20/1 67/21/1 68/22/1
f 69/23/1 70/24/1 71/25/1 72/26/1
f 73/12/1 74/11/1 75/23/1 76/27/1
f 77/23/1 78/24/1 79/25/1 80/26/1
f 81/10/1 82/19/1 83/22/1 84/11/1
f 85/23/1 86/24/1 87/25/1 88/26/1
f 89/10/1 90/19/1 91/22/1 92/11/1
f 93/23/1 94/24/1 95/25/1 96/26/1
f 97/23/1 98/24/1 99/25/1 100/26/1
f 101/23/1 102/24/1 103/25/1 104/26/1
f 105/11/1 106/22/1 107/24/1 108/23/1
f 109/23/1 110/24/1 111/25/1 112/26/1
f 113/2/1 114/17/1 115/18/1 116/3/1
f 117/23/1 118/24/1 119/25/1 120/26/1
f 121/2/1 122/17/1 123/18/1 124/3/1
f 125/23/1 126/24/1 127/25/1 128/26/1
f 129/12/1 130/11/1 131/23/1 132/27/1
f 133/15/1 134/28/1 135/17/1 136/2/1
f 137/10/1 138/19/1 139/22/1 140/11/1
f 141/29/1 142/30/1 143/6/1 144/5/1
f 145/10/1 146/19/1 147/22/1 148/11/1
f 149/29/1 150/30/1 151/6/1 152/5/1

