# Tiled2Unity generated file. Do not modify by hand.
# Wavefront file for 'village1_mesh_0010.obj'

# Vertices (Count = 20)
v -47 -39 0
v -48 -39 0
v -48 -38 0
v -47 -38 0
v -40 -48 0
v -41 -48 0
v -41 -47 0
v -40 -47 0
v -54 -49 0
v -55 -49 0
v -55 -48 0
v -54 -48 0
v -39 -59 0
v -40 -59 0
v -40 -58 0
v -39 -58 0
v -48 -66 0
v -49 -66 0
v -49 -65 0
v -48 -65 0

# Texture cooridinates (Count = 7)
vt 0.5 0.25
vt 0.75 0.25
vt 0.75 0.5
vt 0.5 0.5
vt 0.25 0.5
vt 0.5 0.75
vt 0.25 0.75

# Normal
vn 0 0 -1

# Mesh description
g village1_mesh_0010

# Faces
f 1/1/1 2/2/1 3/3/1 4/4/1
f 5/5/1 6/4/1 7/6/1 8/7/1
f 9/5/1 10/4/1 11/6/1 12/7/1
f 13/1/1 14/2/1 15/3/1 16/4/1
f 17/5/1 18/4/1 19/6/1 20/7/1

