# Tiled2Unity generated file. Do not modify by hand.
# Wavefront file for 'village1_mesh_0007.obj'

# Vertices (Count = 628)
v -47 -40 0
v -48 -40 0
v -48 -39 0
v -47 -39 0
v -51 -41 0
v -52 -41 0
v -52 -40 0
v -51 -40 0
v -50 -41 0
v -51 -41 0
v -51 -40 0
v -50 -40 0
v -49 -41 0
v -50 -41 0
v -50 -40 0
v -49 -40 0
v -48 -41 0
v -49 -41 0
v -49 -40 0
v -48 -40 0
v -47 -41 0
v -48 -41 0
v -48 -40 0
v -47 -40 0
v -46 -41 0
v -47 -41 0
v -47 -40 0
v -46 -40 0
v -45 -41 0
v -46 -41 0
v -46 -40 0
v -45 -40 0
v -44 -41 0
v -45 -41 0
v -45 -40 0
v -44 -40 0
v -43 -41 0
v -44 -41 0
v -44 -40 0
v -43 -40 0
v -51 -42 0
v -52 -42 0
v -52 -41 0
v -51 -41 0
v -50 -42 0
v -51 -42 0
v -51 -41 0
v -50 -41 0
v -49 -42 0
v -50 -42 0
v -50 -41 0
v -49 -41 0
v -48 -42 0
v -49 -42 0
v -49 -41 0
v -48 -41 0
v -47 -42 0
v -48 -42 0
v -48 -41 0
v -47 -41 0
v -46 -42 0
v -47 -42 0
v -47 -41 0
v -46 -41 0
v -45 -42 0
v -46 -42 0
v -46 -41 0
v -45 -41 0
v -44 -42 0
v -45 -42 0
v -45 -41 0
v -44 -41 0
v -43 -42 0
v -44 -42 0
v -44 -41 0
v -43 -41 0
v -51 -43 0
v -52 -43 0
v -52 -42 0
v -51 -42 0
v -50 -43 0
v -51 -43 0
v -51 -42 0
v -50 -42 0
v -49 -43 0
v -50 -43 0
v -50 -42 0
v -49 -42 0
v -48 -43 0
v -49 -43 0
v -49 -42 0
v -48 -42 0
v -47 -43 0
v -48 -43 0
v -48 -42 0
v -47 -42 0
v -46 -43 0
v -47 -43 0
v -47 -42 0
v -46 -42 0
v -45 -43 0
v -46 -43 0
v -46 -42 0
v -45 -42 0
v -44 -43 0
v -45 -43 0
v -45 -42 0
v -44 -42 0
v -43 -43 0
v -44 -43 0
v -44 -42 0
v -43 -42 0
v -49 -44 0
v -50 -44 0
v -50 -43 0
v -49 -43 0
v -48 -44 0
v -49 -44 0
v -49 -43 0
v -48 -43 0
v -47 -44 0
v -48 -44 0
v -48 -43 0
v -47 -43 0
v -46 -44 0
v -47 -44 0
v -47 -43 0
v -46 -43 0
v -45 -44 0
v -46 -44 0
v -46 -43 0
v -45 -43 0
v -44 -44 0
v -45 -44 0
v -45 -43 0
v -44 -43 0
v -43 -44 0
v -44 -44 0
v -44 -43 0
v -43 -43 0
v -49 -45 0
v -50 -45 0
v -50 -44 0
v -49 -44 0
v -48 -45 0
v -49 -45 0
v -49 -44 0
v -48 -44 0
v -47 -45 0
v -48 -45 0
v -48 -44 0
v -47 -44 0
v -46 -45 0
v -47 -45 0
v -47 -44 0
v -46 -44 0
v -45 -45 0
v -46 -45 0
v -46 -44 0
v -45 -44 0
v -44 -45 0
v -45 -45 0
v -45 -44 0
v -44 -44 0
v -43 -45 0
v -44 -45 0
v -44 -44 0
v -43 -44 0
v -49 -46 0
v -50 -46 0
v -50 -45 0
v -49 -45 0
v -48 -46 0
v -49 -46 0
v -49 -45 0
v -48 -45 0
v -47 -46 0
v -48 -46 0
v -48 -45 0
v -47 -45 0
v -46 -46 0
v -47 -46 0
v -47 -45 0
v -46 -45 0
v -45 -46 0
v -46 -46 0
v -46 -45 0
v -45 -45 0
v -44 -46 0
v -45 -46 0
v -45 -45 0
v -44 -45 0
v -43 -46 0
v -44 -46 0
v -44 -45 0
v -43 -45 0
v -49 -47 0
v -50 -47 0
v -50 -46 0
v -49 -46 0
v -48 -47 0
v -49 -47 0
v -49 -46 0
v -48 -46 0
v -47 -47 0
v -48 -47 0
v -48 -46 0
v -47 -46 0
v -46 -47 0
v -47 -47 0
v -47 -46 0
v -46 -46 0
v -45 -47 0
v -46 -47 0
v -46 -46 0
v -45 -46 0
v -44 -47 0
v -45 -47 0
v -45 -46 0
v -44 -46 0
v -43 -47 0
v -44 -47 0
v -44 -46 0
v -43 -46 0
v -49 -48 0
v -50 -48 0
v -50 -47 0
v -49 -47 0
v -48 -48 0
v -49 -48 0
v -49 -47 0
v -48 -47 0
v -47 -48 0
v -48 -48 0
v -48 -47 0
v -47 -47 0
v -46 -48 0
v -47 -48 0
v -47 -47 0
v -46 -47 0
v -45 -48 0
v -46 -48 0
v -46 -47 0
v -45 -47 0
v -44 -48 0
v -45 -48 0
v -45 -47 0
v -44 -47 0
v -43 -48 0
v -44 -48 0
v -44 -47 0
v -43 -47 0
v -37 -48 0
v -38 -48 0
v -38 -47 0
v -37 -47 0
v -36 -48 0
v -37 -48 0
v -37 -47 0
v -36 -47 0
v -49 -49 0
v -50 -49 0
v -50 -48 0
v -49 -48 0
v -48 -49 0
v -49 -49 0
v -49 -48 0
v -48 -48 0
v -47 -49 0
v -48 -49 0
v -48 -48 0
v -47 -48 0
v -46 -49 0
v -47 -49 0
v -47 -48 0
v -46 -48 0
v -45 -49 0
v -46 -49 0
v -46 -48 0
v -45 -48 0
v -44 -49 0
v -45 -49 0
v -45 -48 0
v -44 -48 0
v -43 -49 0
v -44 -49 0
v -44 -48 0
v -43 -48 0
v -42 -49 0
v -43 -49 0
v -43 -48 0
v -42 -48 0
v -41 -49 0
v -42 -49 0
v -42 -48 0
v -41 -48 0
v -40 -49 0
v -41 -49 0
v -41 -48 0
v -40 -48 0
v -39 -49 0
v -40 -49 0
v -40 -48 0
v -39 -48 0
v -38 -49 0
v -39 -49 0
v -39 -48 0
v -38 -48 0
v -37 -49 0
v -38 -49 0
v -38 -48 0
v -37 -48 0
v -36 -49 0
v -37 -49 0
v -37 -48 0
v -36 -48 0
v -57 -50 0
v -58 -50 0
v -58 -49 0
v -57 -49 0
v -54 -50 0
v -55 -50 0
v -55 -49 0
v -54 -49 0
v -49 -50 0
v -50 -50 0
v -50 -49 0
v -49 -49 0
v -48 -50 0
v -49 -50 0
v -49 -49 0
v -48 -49 0
v -47 -50 0
v -48 -50 0
v -48 -49 0
v -47 -49 0
v -46 -50 0
v -47 -50 0
v -47 -49 0
v -46 -49 0
v -45 -50 0
v -46 -50 0
v -46 -49 0
v -45 -49 0
v -44 -50 0
v -45 -50 0
v -45 -49 0
v -44 -49 0
v -43 -50 0
v -44 -50 0
v -44 -49 0
v -43 -49 0
v -37 -50 0
v -38 -50 0
v -38 -49 0
v -37 -49 0
v -36 -50 0
v -37 -50 0
v -37 -49 0
v -36 -49 0
v -57 -51 0
v -58 -51 0
v -58 -50 0
v -57 -50 0
v -54 -51 0
v -55 -51 0
v -55 -50 0
v -54 -50 0
v -53 -51 0
v -54 -51 0
v -54 -50 0
v -53 -50 0
v -52 -51 0
v -53 -51 0
v -53 -50 0
v -52 -50 0
v -51 -51 0
v -52 -51 0
v -52 -50 0
v -51 -50 0
v -50 -51 0
v -51 -51 0
v -51 -50 0
v -50 -50 0
v -49 -51 0
v -50 -51 0
v -50 -50 0
v -49 -50 0
v -48 -51 0
v -49 -51 0
v -49 -50 0
v -48 -50 0
v -47 -51 0
v -48 -51 0
v -48 -50 0
v -47 -50 0
v -46 -51 0
v -47 -51 0
v -47 -50 0
v -46 -50 0
v -45 -51 0
v -46 -51 0
v -46 -50 0
v -45 -50 0
v -44 -51 0
v -45 -51 0
v -45 -50 0
v -44 -50 0
v -43 -51 0
v -44 -51 0
v -44 -50 0
v -43 -50 0
v -37 -51 0
v -38 -51 0
v -38 -50 0
v -37 -50 0
v -36 -51 0
v -37 -51 0
v -37 -50 0
v -36 -50 0
v -57 -52 0
v -58 -52 0
v -58 -51 0
v -57 -51 0
v -54 -52 0
v -55 -52 0
v -55 -51 0
v -54 -51 0
v -49 -52 0
v -50 -52 0
v -50 -51 0
v -49 -51 0
v -48 -52 0
v -49 -52 0
v -49 -51 0
v -48 -51 0
v -47 -52 0
v -48 -52 0
v -48 -51 0
v -47 -51 0
v -46 -52 0
v -47 -52 0
v -47 -51 0
v -46 -51 0
v -45 -52 0
v -46 -52 0
v -46 -51 0
v -45 -51 0
v -44 -52 0
v -45 -52 0
v -45 -51 0
v -44 -51 0
v -43 -52 0
v -44 -52 0
v -44 -51 0
v -43 -51 0
v -57 -53 0
v -58 -53 0
v -58 -52 0
v -57 -52 0
v -56 -53 0
v -57 -53 0
v -57 -52 0
v -56 -52 0
v -55 -53 0
v -56 -53 0
v -56 -52 0
v -55 -52 0
v -54 -53 0
v -55 -53 0
v -55 -52 0
v -54 -52 0
v -57 -54 0
v -58 -54 0
v -58 -53 0
v -57 -53 0
v -54 -54 0
v -55 -54 0
v -55 -53 0
v -54 -53 0
v -57 -55 0
v -58 -55 0
v -58 -54 0
v -57 -54 0
v -54 -55 0
v -55 -55 0
v -55 -54 0
v -54 -54 0
v -57 -56 0
v -58 -56 0
v -58 -55 0
v -57 -55 0
v -54 -56 0
v -55 -56 0
v -55 -55 0
v -54 -55 0
v -57 -57 0
v -58 -57 0
v -58 -56 0
v -57 -56 0
v -54 -57 0
v -55 -57 0
v -55 -56 0
v -54 -56 0
v -57 -58 0
v -58 -58 0
v -58 -57 0
v -57 -57 0
v -54 -58 0
v -55 -58 0
v -55 -57 0
v -54 -57 0
v -57 -59 0
v -58 -59 0
v -58 -58 0
v -57 -58 0
v -54 -59 0
v -55 -59 0
v -55 -58 0
v -54 -58 0
v -57 -60 0
v -58 -60 0
v -58 -59 0
v -57 -59 0
v -54 -60 0
v -55 -60 0
v -55 -59 0
v -54 -59 0
v -57 -61 0
v -58 -61 0
v -58 -60 0
v -57 -60 0
v -54 -61 0
v -55 -61 0
v -55 -60 0
v -54 -60 0
v -57 -62 0
v -58 -62 0
v -58 -61 0
v -57 -61 0
v -56 -62 0
v -57 -62 0
v -57 -61 0
v -56 -61 0
v -54 -62 0
v -55 -62 0
v -55 -61 0
v -54 -61 0
v -56 -63 0
v -57 -63 0
v -57 -62 0
v -56 -62 0
v -54 -63 0
v -55 -63 0
v -55 -62 0
v -54 -62 0
v -56 -64 0
v -57 -64 0
v -57 -63 0
v -56 -63 0
v -54 -64 0
v -55 -64 0
v -55 -63 0
v -54 -63 0
v -56 -65 0
v -57 -65 0
v -57 -64 0
v -56 -64 0
v -54 -65 0
v -55 -65 0
v -55 -64 0
v -54 -64 0
v -56 -66 0
v -57 -66 0
v -57 -65 0
v -56 -65 0
v -54 -66 0
v -55 -66 0
v -55 -65 0
v -54 -65 0
v -56 -67 0
v -57 -67 0
v -57 -66 0
v -56 -66 0
v -54 -67 0
v -55 -67 0
v -55 -66 0
v -54 -66 0
v -48 -67 0
v -49 -67 0
v -49 -66 0
v -48 -66 0
v -56 -68 0
v -57 -68 0
v -57 -67 0
v -56 -67 0
v -54 -68 0
v -55 -68 0
v -55 -67 0
v -54 -67 0
v -53 -68 0
v -54 -68 0
v -54 -67 0
v -53 -67 0
v -52 -68 0
v -53 -68 0
v -53 -67 0
v -52 -67 0
v -51 -68 0
v -52 -68 0
v -52 -67 0
v -51 -67 0
v -50 -68 0
v -51 -68 0
v -51 -67 0
v -50 -67 0
v -49 -68 0
v -50 -68 0
v -50 -67 0
v -49 -67 0
v -48 -68 0
v -49 -68 0
v -49 -67 0
v -48 -67 0
v -56 -69 0
v -57 -69 0
v -57 -68 0
v -56 -68 0

# Texture cooridinates (Count = 45)
vt 0.25 0.5
vt 0.3333333 0.5
vt 0.3333333 0.5833334
vt 0.25 0.5833334
vt 0.75 0.5833334
vt 0.8333333 0.5833334
vt 0.8333333 0.6666666
vt 0.75 0.6666666
vt 0.1666667 0.5833334
vt 0.25 0.6666666
vt 0.1666667 0.6666666
vt 0.5 0.6666666
vt 0.5833333 0.6666666
vt 0.5833333 0.75
vt 0.5 0.75
vt 0.5 0.5833334
vt 0.5833333 0.5833334
vt 0.4166667 0.5833334
vt 0.4166667 0.6666666
vt 0.3333333 0.6666666
vt 0.8333333 0.75
vt 0.9166667 0.75
vt 0.9166667 0.8333333
vt 0.8333333 0.8333333
vt 0.6666667 0.5833334
vt 0.6666667 0.6666666
vt 0.08333334 0.6666666
vt 0.1666667 0.75
vt 0.08333334 0.75
vt 0.6666667 0.75
vt 0.1666667 0.5
vt 0.4166667 0.75
vt 0.5 0.8333333
vt 0.5833333 0.8333333
vt 0.5833333 0.9166667
vt 0.5 0.9166667
vt 0.08333334 0.5833334
vt 0.08333334 0.5
vt 1 0.8333333
vt 1 0.9166667
vt 0.9166667 0.9166667
vt 0.3333333 0.9166667
vt 0.4166667 0.9166667
vt 0.4166667 1
vt 0.3333333 1

# Normal
vn 0 0 -1

# Mesh description
g village1_mesh_0007

# Faces
f 1/1/1 2/2/1 3/3/1 4/4/1
f 5/5/1 6/6/1 7/7/1 8/8/1
f 9/9/1 10/4/1 11/10/1 12/11/1
f 13/9/1 14/4/1 15/10/1 16/11/1
f 17/9/1 18/4/1 19/10/1 20/11/1
f 21/12/1 22/13/1 23/14/1 24/15/1
f 25/9/1 26/4/1 27/10/1 28/11/1
f 29/9/1 30/4/1 31/10/1 32/11/1
f 33/9/1 34/4/1 35/10/1 36/11/1
f 37/16/1 38/17/1 39/13/1 40/12/1
f 41/3/1 42/18/1 43/19/1 44/20/1
f 45/21/1 46/22/1 47/23/1 48/24/1
f 49/21/1 50/22/1 51/23/1 52/24/1
f 53/21/1 54/22/1 55/23/1 56/24/1
f 57/21/1 58/22/1 59/23/1 60/24/1
f 61/21/1 62/22/1 63/23/1 64/24/1
f 65/21/1 66/22/1 67/23/1 68/24/1
f 69/21/1 70/22/1 71/23/1 72/24/1
f 73/4/1 74/3/1 75/20/1 76/10/1
f 77/25/1 78/5/1 79/8/1 80/26/1
f 81/18/1 82/16/1 83/12/1 84/19/1
f 85/27/1 86/11/1 87/28/1 88/29/1
f 89/21/1 90/22/1 91/23/1 92/24/1
f 93/21/1 94/22/1 95/23/1 96/24/1
f 97/21/1 98/22/1 99/23/1 100/24/1
f 101/21/1 102/22/1 103/23/1 104/24/1
f 105/21/1 106/22/1 107/23/1 108/24/1
f 109/4/1 110/3/1 111/20/1 112/10/1
f 113/3/1 114/18/1 115/19/1 116/20/1
f 117/21/1 118/22/1 119/23/1 120/24/1
f 121/21/1 122/22/1 123/23/1 124/24/1
f 125/21/1 126/22/1 127/23/1 128/24/1
f 129/21/1 130/22/1 131/23/1 132/24/1
f 133/21/1 134/22/1 135/23/1 136/24/1
f 137/4/1 138/3/1 139/20/1 140/10/1
f 141/3/1 142/18/1 143/19/1 144/20/1
f 145/21/1 146/22/1 147/23/1 148/24/1
f 149/21/1 150/22/1 151/23/1 152/24/1
f 153/21/1 154/22/1 155/23/1 156/24/1
f 157/21/1 158/22/1 159/23/1 160/24/1
f 161/21/1 162/22/1 163/23/1 164/24/1
f 165/4/1 166/3/1 167/20/1 168/10/1
f 169/3/1 170/18/1 171/19/1 172/20/1
f 173/21/1 174/22/1 175/23/1 176/24/1
f 177/21/1 178/22/1 179/23/1 180/24/1
f 181/21/1 182/22/1 183/23/1 184/24/1
f 185/21/1 186/22/1 187/23/1 188/24/1
f 189/21/1 190/22/1 191/23/1 192/24/1
f 193/4/1 194/3/1 195/20/1 196/10/1
f 197/3/1 198/18/1 199/19/1 200/20/1
f 201/21/1 202/22/1 203/23/1 204/24/1
f 205/21/1 206/22/1 207/23/1 208/24/1
f 209/21/1 210/22/1 211/23/1 212/24/1
f 213/21/1 214/22/1 215/23/1 216/24/1
f 217/21/1 218/22/1 219/23/1 220/24/1
f 221/4/1 222/3/1 223/20/1 224/10/1
f 225/3/1 226/18/1 227/19/1 228/20/1
f 229/21/1 230/22/1 231/23/1 232/24/1
f 233/21/1 234/22/1 235/23/1 236/24/1
f 237/21/1 238/22/1 239/23/1 240/24/1
f 241/21/1 242/22/1 243/23/1 244/24/1
f 245/21/1 246/22/1 247/23/1 248/24/1
f 249/4/1 250/3/1 251/20/1 252/10/1
f 253/5/1 254/6/1 255/7/1 256/8/1
f 257/16/1 258/17/1 259/13/1 260/12/1
f 261/3/1 262/18/1 263/19/1 264/20/1
f 265/21/1 266/22/1 267/23/1 268/24/1
f 269/21/1 270/22/1 271/23/1 272/24/1
f 273/21/1 274/22/1 275/23/1 276/24/1
f 277/21/1 278/22/1 279/23/1 280/24/1
f 281/21/1 282/22/1 283/23/1 284/24/1
f 285/13/1 286/26/1 287/30/1 288/14/1
f 289/31/1 290/1/1 291/4/1 292/9/1
f 293/31/1 294/1/1 295/4/1 296/9/1
f 297/31/1 298/1/1 299/4/1 300/9/1
f 301/31/1 302/1/1 303/4/1 304/9/1
f 305/31/1 306/1/1 307/4/1 308/9/1
f 309/19/1 310/12/1 311/15/1 312/32/1
f 313/4/1 314/3/1 315/20/1 316/10/1
f 317/33/1 318/34/1 319/35/1 320/36/1
f 321/1/1 322/2/1 323/3/1 324/4/1
f 325/3/1 326/18/1 327/19/1 328/20/1
f 329/21/1 330/22/1 331/23/1 332/24/1
f 333/21/1 334/22/1 335/23/1 336/24/1
f 337/21/1 338/22/1 339/23/1 340/24/1
f 341/21/1 342/22/1 343/23/1 344/24/1
f 345/21/1 346/22/1 347/23/1 348/24/1
f 349/4/1 350/3/1 351/20/1 352/10/1
f 353/3/1 354/18/1 355/19/1 356/20/1
f 357/4/1 358/3/1 359/20/1 360/10/1
f 361/33/1 362/34/1 363/35/1 364/36/1
f 365/37/1 366/9/1 367/11/1 368/27/1
f 369/31/1 370/1/1 371/4/1 372/9/1
f 373/31/1 374/1/1 375/4/1 376/9/1
f 377/31/1 378/1/1 379/4/1 380/9/1
f 381/31/1 382/1/1 383/4/1 384/9/1
f 385/19/1 386/12/1 387/15/1 388/32/1
f 389/21/1 390/22/1 391/23/1 392/24/1
f 393/21/1 394/22/1 395/23/1 396/24/1
f 397/21/1 398/22/1 399/23/1 400/24/1
f 401/21/1 402/22/1 403/23/1 404/24/1
f 405/21/1 406/22/1 407/23/1 408/24/1
f 409/4/1 410/3/1 411/20/1 412/10/1
f 413/25/1 414/5/1 415/8/1 416/26/1
f 417/17/1 418/25/1 419/26/1 420/13/1
f 421/33/1 422/34/1 423/35/1 424/36/1
f 425/1/1 426/2/1 427/3/1 428/4/1
f 429/25/1 430/5/1 431/8/1 432/26/1
f 433/18/1 434/16/1 435/12/1 436/19/1
f 437/18/1 438/16/1 439/12/1 440/19/1
f 441/18/1 442/16/1 443/12/1 444/19/1
f 445/18/1 446/16/1 447/12/1 448/19/1
f 449/18/1 450/16/1 451/12/1 452/19/1
f 453/17/1 454/25/1 455/26/1 456/13/1
f 457/33/1 458/34/1 459/35/1 460/36/1
f 461/38/1 462/31/1 463/9/1 464/37/1
f 465/31/1 466/1/1 467/4/1 468/9/1
f 469/37/1 470/9/1 471/11/1 472/27/1
f 473/33/1 474/34/1 475/35/1 476/36/1
f 477/1/1 478/2/1 479/3/1 480/4/1
f 481/33/1 482/34/1 483/35/1 484/36/1
f 485/1/1 486/2/1 487/3/1 488/4/1
f 489/33/1 490/34/1 491/35/1 492/36/1
f 493/1/1 494/2/1 495/3/1 496/4/1
f 497/33/1 498/34/1 499/35/1 500/36/1
f 501/1/1 502/2/1 503/3/1 504/4/1
f 505/33/1 506/34/1 507/35/1 508/36/1
f 509/1/1 510/2/1 511/3/1 512/4/1
f 513/33/1 514/34/1 515/35/1 516/36/1
f 517/1/1 518/2/1 519/3/1 520/4/1
f 521/33/1 522/34/1 523/35/1 524/36/1
f 525/1/1 526/2/1 527/3/1 528/4/1
f 529/33/1 530/34/1 531/35/1 532/36/1
f 533/1/1 534/2/1 535/3/1 536/4/1
f 537/23/1 538/39/1 539/40/1 540/41/1
f 541/42/1 542/43/1 543/44/1 544/45/1
f 545/1/1 546/2/1 547/3/1 548/4/1
f 549/33/1 550/34/1 551/35/1 552/36/1
f 553/1/1 554/2/1 555/3/1 556/4/1
f 557/33/1 558/34/1 559/35/1 560/36/1
f 561/1/1 562/2/1 563/3/1 564/4/1
f 565/33/1 566/34/1 567/35/1 568/36/1
f 569/1/1 570/2/1 571/3/1 572/4/1
f 573/33/1 574/34/1 575/35/1 576/36/1
f 577/1/1 578/2/1 579/3/1 580/4/1
f 581/33/1 582/34/1 583/35/1 584/36/1
f 585/1/1 586/2/1 587/3/1 588/4/1
f 589/1/1 590/2/1 591/3/1 592/4/1
f 593/33/1 594/34/1 595/35/1 596/36/1
f 597/37/1 598/9/1 599/11/1 600/27/1
f 601/31/1 602/1/1 603/4/1 604/9/1
f 605/31/1 606/1/1 607/4/1 608/9/1
f 609/31/1 610/1/1 611/4/1 612/9/1
f 613/31/1 614/1/1 615/4/1 616/9/1
f 617/31/1 618/1/1 619/4/1 620/9/1
f 621/37/1 622/9/1 623/11/1 624/27/1
f 625/33/1 626/34/1 627/35/1 628/36/1

