# Tiled2Unity generated file. Do not modify by hand.
# Wavefront file for 'village1_mesh_0013.obj'

# Vertices (Count = 460)
v -51 -34 0
v -52 -34 0
v -52 -33 0
v -51 -33 0
v -50 -34 0
v -51 -34 0
v -51 -33 0
v -50 -33 0
v -49 -34 0
v -50 -34 0
v -50 -33 0
v -49 -33 0
v -48 -34 0
v -49 -34 0
v -49 -33 0
v -48 -33 0
v -47 -34 0
v -48 -34 0
v -48 -33 0
v -47 -33 0
v -46 -34 0
v -47 -34 0
v -47 -33 0
v -46 -33 0
v -45 -34 0
v -46 -34 0
v -46 -33 0
v -45 -33 0
v -44 -34 0
v -45 -34 0
v -45 -33 0
v -44 -33 0
v -43 -34 0
v -44 -34 0
v -44 -33 0
v -43 -33 0
v -42 -34 0
v -43 -34 0
v -43 -33 0
v -42 -33 0
v -51 -35 0
v -52 -35 0
v -52 -34 0
v -51 -34 0
v -50 -35 0
v -51 -35 0
v -51 -34 0
v -50 -34 0
v -49 -35 0
v -50 -35 0
v -50 -34 0
v -49 -34 0
v -48 -35 0
v -49 -35 0
v -49 -34 0
v -48 -34 0
v -47 -35 0
v -48 -35 0
v -48 -34 0
v -47 -34 0
v -46 -35 0
v -47 -35 0
v -47 -34 0
v -46 -34 0
v -45 -35 0
v -46 -35 0
v -46 -34 0
v -45 -34 0
v -44 -35 0
v -45 -35 0
v -45 -34 0
v -44 -34 0
v -43 -35 0
v -44 -35 0
v -44 -34 0
v -43 -34 0
v -42 -35 0
v -43 -35 0
v -43 -34 0
v -42 -34 0
v -51 -36 0
v -52 -36 0
v -52 -35 0
v -51 -35 0
v -50 -36 0
v -51 -36 0
v -51 -35 0
v -50 -35 0
v -49 -36 0
v -50 -36 0
v -50 -35 0
v -49 -35 0
v -48 -36 0
v -49 -36 0
v -49 -35 0
v -48 -35 0
v -47 -36 0
v -48 -36 0
v -48 -35 0
v -47 -35 0
v -46 -36 0
v -47 -36 0
v -47 -35 0
v -46 -35 0
v -45 -36 0
v -46 -36 0
v -46 -35 0
v -45 -35 0
v -44 -36 0
v -45 -36 0
v -45 -35 0
v -44 -35 0
v -43 -36 0
v -44 -36 0
v -44 -35 0
v -43 -35 0
v -42 -36 0
v -43 -36 0
v -43 -35 0
v -42 -35 0
v -40 -38 0
v -41 -38 0
v -41 -37 0
v -40 -37 0
v -39 -38 0
v -40 -38 0
v -40 -37 0
v -39 -37 0
v -41 -39 0
v -42 -39 0
v -42 -38 0
v -41 -38 0
v -40 -39 0
v -41 -39 0
v -41 -38 0
v -40 -38 0
v -39 -39 0
v -40 -39 0
v -40 -38 0
v -39 -38 0
v -38 -39 0
v -39 -39 0
v -39 -38 0
v -38 -38 0
v -41 -40 0
v -42 -40 0
v -42 -39 0
v -41 -39 0
v -40 -40 0
v -41 -40 0
v -41 -39 0
v -40 -39 0
v -39 -40 0
v -40 -40 0
v -40 -39 0
v -39 -39 0
v -38 -40 0
v -39 -40 0
v -39 -39 0
v -38 -39 0
v -41 -41 0
v -42 -41 0
v -42 -40 0
v -41 -40 0
v -40 -41 0
v -41 -41 0
v -41 -40 0
v -40 -40 0
v -39 -41 0
v -40 -41 0
v -40 -40 0
v -39 -40 0
v -38 -41 0
v -39 -41 0
v -39 -40 0
v -38 -40 0
v -41 -42 0
v -42 -42 0
v -42 -41 0
v -41 -41 0
v -40 -42 0
v -41 -42 0
v -41 -41 0
v -40 -41 0
v -39 -42 0
v -40 -42 0
v -40 -41 0
v -39 -41 0
v -38 -42 0
v -39 -42 0
v -39 -41 0
v -38 -41 0
v -41 -43 0
v -42 -43 0
v -42 -42 0
v -41 -42 0
v -40 -43 0
v -41 -43 0
v -41 -42 0
v -40 -42 0
v -39 -43 0
v -40 -43 0
v -40 -42 0
v -39 -42 0
v -38 -43 0
v -39 -43 0
v -39 -42 0
v -38 -42 0
v -56 -44 0
v -57 -44 0
v -57 -43 0
v -56 -43 0
v -55 -44 0
v -56 -44 0
v -56 -43 0
v -55 -43 0
v -54 -44 0
v -55 -44 0
v -55 -43 0
v -54 -43 0
v -53 -44 0
v -54 -44 0
v -54 -43 0
v -53 -43 0
v -52 -44 0
v -53 -44 0
v -53 -43 0
v -52 -43 0
v -51 -44 0
v -52 -44 0
v -52 -43 0
v -51 -43 0
v -50 -44 0
v -51 -44 0
v -51 -43 0
v -50 -43 0
v -41 -44 0
v -42 -44 0
v -42 -43 0
v -41 -43 0
v -38 -44 0
v -39 -44 0
v -39 -43 0
v -38 -43 0
v -56 -45 0
v -57 -45 0
v -57 -44 0
v -56 -44 0
v -55 -45 0
v -56 -45 0
v -56 -44 0
v -55 -44 0
v -54 -45 0
v -55 -45 0
v -55 -44 0
v -54 -44 0
v -53 -45 0
v -54 -45 0
v -54 -44 0
v -53 -44 0
v -52 -45 0
v -53 -45 0
v -53 -44 0
v -52 -44 0
v -51 -45 0
v -52 -45 0
v -52 -44 0
v -51 -44 0
v -50 -45 0
v -51 -45 0
v -51 -44 0
v -50 -44 0
v -56 -46 0
v -57 -46 0
v -57 -45 0
v -56 -45 0
v -55 -46 0
v -56 -46 0
v -56 -45 0
v -55 -45 0
v -54 -46 0
v -55 -46 0
v -55 -45 0
v -54 -45 0
v -53 -46 0
v -54 -46 0
v -54 -45 0
v -53 -45 0
v -52 -46 0
v -53 -46 0
v -53 -45 0
v -52 -45 0
v -51 -46 0
v -52 -46 0
v -52 -45 0
v -51 -45 0
v -50 -46 0
v -51 -46 0
v -51 -45 0
v -50 -45 0
v -40 -51 0
v -41 -51 0
v -41 -50 0
v -40 -50 0
v -39 -51 0
v -40 -51 0
v -40 -50 0
v -39 -50 0
v -41 -52 0
v -42 -52 0
v -42 -51 0
v -41 -51 0
v -40 -52 0
v -41 -52 0
v -41 -51 0
v -40 -51 0
v -39 -52 0
v -40 -52 0
v -40 -51 0
v -39 -51 0
v -38 -52 0
v -39 -52 0
v -39 -51 0
v -38 -51 0
v -41 -53 0
v -42 -53 0
v -42 -52 0
v -41 -52 0
v -40 -53 0
v -41 -53 0
v -41 -52 0
v -40 -52 0
v -39 -53 0
v -40 -53 0
v -40 -52 0
v -39 -52 0
v -38 -53 0
v -39 -53 0
v -39 -52 0
v -38 -52 0
v -41 -54 0
v -42 -54 0
v -42 -53 0
v -41 -53 0
v -40 -54 0
v -41 -54 0
v -41 -53 0
v -40 -53 0
v -39 -54 0
v -40 -54 0
v -40 -53 0
v -39 -53 0
v -38 -54 0
v -39 -54 0
v -39 -53 0
v -38 -53 0
v -41 -55 0
v -42 -55 0
v -42 -54 0
v -41 -54 0
v -38 -55 0
v -39 -55 0
v -39 -54 0
v -38 -54 0
v -52 -61 0
v -53 -61 0
v -53 -60 0
v -52 -60 0
v -51 -61 0
v -52 -61 0
v -52 -60 0
v -51 -60 0
v -50 -61 0
v -51 -61 0
v -51 -60 0
v -50 -60 0
v -49 -61 0
v -50 -61 0
v -50 -60 0
v -49 -60 0
v -48 -61 0
v -49 -61 0
v -49 -60 0
v -48 -60 0
v -47 -61 0
v -48 -61 0
v -48 -60 0
v -47 -60 0
v -46 -61 0
v -47 -61 0
v -47 -60 0
v -46 -60 0
v -45 -61 0
v -46 -61 0
v -46 -60 0
v -45 -60 0
v -52 -62 0
v -53 -62 0
v -53 -61 0
v -52 -61 0
v -51 -62 0
v -52 -62 0
v -52 -61 0
v -51 -61 0
v -50 -62 0
v -51 -62 0
v -51 -61 0
v -50 -61 0
v -49 -62 0
v -50 -62 0
v -50 -61 0
v -49 -61 0
v -48 -62 0
v -49 -62 0
v -49 -61 0
v -48 -61 0
v -47 -62 0
v -48 -62 0
v -48 -61 0
v -47 -61 0
v -46 -62 0
v -47 -62 0
v -47 -61 0
v -46 -61 0
v -45 -62 0
v -46 -62 0
v -46 -61 0
v -45 -61 0
v -52 -63 0
v -53 -63 0
v -53 -62 0
v -52 -62 0
v -51 -63 0
v -52 -63 0
v -52 -62 0
v -51 -62 0
v -50 -63 0
v -51 -63 0
v -51 -62 0
v -50 -62 0
v -49 -63 0
v -50 -63 0
v -50 -62 0
v -49 -62 0
v -48 -63 0
v -49 -63 0
v -49 -62 0
v -48 -62 0
v -47 -63 0
v -48 -63 0
v -48 -62 0
v -47 -62 0
v -46 -63 0
v -47 -63 0
v -47 -62 0
v -46 -62 0
v -45 -63 0
v -46 -63 0
v -46 -62 0
v -45 -62 0

# Texture cooridinates (Count = 31)
vt 0.25 0.75
vt 0.375 0.75
vt 0.375 0.875
vt 0.25 0.875
vt 0.5 0.875
vt 0.5 1
vt 0.375 1
vt 0.5 0.75
vt 0.625 0.75
vt 0.625 0.875
vt 0.625 1
vt 0 0.875
vt 0.125 0.875
vt 0.125 1
vt 0 1
vt 0.25 1
vt 0.125 0.75
vt 0.875 0.875
vt 1 0.875
vt 1 1
vt 0.875 1
vt 0.75 0.875
vt 0.75 1
vt 0.5 0.125
vt 0.625 0.125
vt 0.625 0.25
vt 0.5 0.25
vt 0.125 0.125
vt 0.25 0.125
vt 0.25 0.25
vt 0.125 0.25

# Normal
vn 0 0 -1

# Mesh description
g village1_mesh_0013

# Faces
f 1/1/1 2/2/1 3/3/1 4/4/1
f 5/3/1 6/5/1 7/6/1 8/7/1
f 9/3/1 10/5/1 11/6/1 12/7/1
f 13/3/1 14/5/1 15/6/1 16/7/1
f 17/3/1 18/5/1 19/6/1 20/7/1
f 21/3/1 22/5/1 23/6/1 24/7/1
f 25/3/1 26/5/1 27/6/1 28/7/1
f 29/3/1 30/5/1 31/6/1 32/7/1
f 33/3/1 34/5/1 35/6/1 36/7/1
f 37/8/1 38/9/1 39/10/1 40/5/1
f 41/5/1 42/10/1 43/11/1 44/6/1
f 45/12/1 46/13/1 47/14/1 48/15/1
f 49/12/1 50/13/1 51/14/1 52/15/1
f 53/12/1 54/13/1 55/14/1 56/15/1
f 57/12/1 58/13/1 59/14/1 60/15/1
f 61/12/1 62/13/1 63/14/1 64/15/1
f 65/12/1 66/13/1 67/14/1 68/15/1
f 69/12/1 70/13/1 71/14/1 72/15/1
f 73/12/1 74/13/1 75/14/1 76/15/1
f 77/13/1 78/4/1 79/16/1 80/14/1
f 81/17/1 82/1/1 83/4/1 84/13/1
f 85/4/1 86/3/1 87/7/1 88/16/1
f 89/4/1 90/3/1 91/7/1 92/16/1
f 93/4/1 94/3/1 95/7/1 96/16/1
f 97/4/1 98/3/1 99/7/1 100/16/1
f 101/4/1 102/3/1 103/7/1 104/16/1
f 105/4/1 106/3/1 107/7/1 108/16/1
f 109/4/1 110/3/1 111/7/1 112/16/1
f 113/4/1 114/3/1 115/7/1 116/16/1
f 117/2/1 118/8/1 119/5/1 120/3/1
f 121/18/1 122/19/1 123/20/1 124/21/1
f 125/10/1 126/22/1 127/23/1 128/11/1
f 129/18/1 130/19/1 131/20/1 132/21/1
f 133/12/1 134/13/1 135/14/1 136/15/1
f 137/12/1 138/13/1 139/14/1 140/15/1
f 141/10/1 142/22/1 143/23/1 144/11/1
f 145/5/1 146/10/1 147/11/1 148/6/1
f 149/12/1 150/13/1 151/14/1 152/15/1
f 153/12/1 154/13/1 155/14/1 156/15/1
f 157/13/1 158/4/1 159/16/1 160/14/1
f 161/5/1 162/10/1 163/11/1 164/6/1
f 165/12/1 166/13/1 167/14/1 168/15/1
f 169/12/1 170/13/1 171/14/1 172/15/1
f 173/13/1 174/4/1 175/16/1 176/14/1
f 177/5/1 178/10/1 179/11/1 180/6/1
f 181/12/1 182/13/1 183/14/1 184/15/1
f 185/12/1 186/13/1 187/14/1 188/15/1
f 189/13/1 190/4/1 191/16/1 192/14/1
f 193/5/1 194/10/1 195/11/1 196/6/1
f 197/24/1 198/25/1 199/26/1 200/27/1
f 201/28/1 202/29/1 203/30/1 204/31/1
f 205/13/1 206/4/1 207/16/1 208/14/1
f 209/1/1 210/2/1 211/3/1 212/4/1
f 213/3/1 214/5/1 215/6/1 216/7/1
f 217/3/1 218/5/1 219/6/1 220/7/1
f 221/3/1 222/5/1 223/6/1 224/7/1
f 225/3/1 226/5/1 227/6/1 228/7/1
f 229/3/1 230/5/1 231/6/1 232/7/1
f 233/8/1 234/9/1 235/10/1 236/5/1
f 237/24/1 238/25/1 239/26/1 240/27/1
f 241/28/1 242/29/1 243/30/1 244/31/1
f 245/5/1 246/10/1 247/11/1 248/6/1
f 249/12/1 250/13/1 251/14/1 252/15/1
f 253/12/1 254/13/1 255/14/1 256/15/1
f 257/12/1 258/13/1 259/14/1 260/15/1
f 261/12/1 262/13/1 263/14/1 264/15/1
f 265/12/1 266/13/1 267/14/1 268/15/1
f 269/13/1 270/4/1 271/16/1 272/14/1
f 273/17/1 274/1/1 275/4/1 276/13/1
f 277/4/1 278/3/1 279/7/1 280/16/1
f 281/4/1 282/3/1 283/7/1 284/16/1
f 285/4/1 286/3/1 287/7/1 288/16/1
f 289/4/1 290/3/1 291/7/1 292/16/1
f 293/4/1 294/3/1 295/7/1 296/16/1
f 297/2/1 298/8/1 299/5/1 300/3/1
f 301/18/1 302/19/1 303/20/1 304/21/1
f 305/10/1 306/22/1 307/23/1 308/11/1
f 309/18/1 310/19/1 311/20/1 312/21/1
f 313/12/1 314/13/1 315/14/1 316/15/1
f 317/12/1 318/13/1 319/14/1 320/15/1
f 321/10/1 322/22/1 323/23/1 324/11/1
f 325/5/1 326/10/1 327/11/1 328/6/1
f 329/12/1 330/13/1 331/14/1 332/15/1
f 333/12/1 334/13/1 335/14/1 336/15/1
f 337/13/1 338/4/1 339/16/1 340/14/1
f 341/5/1 342/10/1 343/11/1 344/6/1
f 345/24/1 346/25/1 347/26/1 348/27/1
f 349/28/1 350/29/1 351/30/1 352/31/1
f 353/13/1 354/4/1 355/16/1 356/14/1
f 357/24/1 358/25/1 359/26/1 360/27/1
f 361/28/1 362/29/1 363/30/1 364/31/1
f 365/1/1 366/2/1 367/3/1 368/4/1
f 369/3/1 370/5/1 371/6/1 372/7/1
f 373/3/1 374/5/1 375/6/1 376/7/1
f 377/3/1 378/5/1 379/6/1 380/7/1
f 381/3/1 382/5/1 383/6/1 384/7/1
f 385/3/1 386/5/1 387/6/1 388/7/1
f 389/3/1 390/5/1 391/6/1 392/7/1
f 393/8/1 394/9/1 395/10/1 396/5/1
f 397/5/1 398/10/1 399/11/1 400/6/1
f 401/12/1 402/13/1 403/14/1 404/15/1
f 405/12/1 406/13/1 407/14/1 408/15/1
f 409/12/1 410/13/1 411/14/1 412/15/1
f 413/12/1 414/13/1 415/14/1 416/15/1
f 417/12/1 418/13/1 419/14/1 420/15/1
f 421/12/1 422/13/1 423/14/1 424/15/1
f 425/13/1 426/4/1 427/16/1 428/14/1
f 429/17/1 430/1/1 431/4/1 432/13/1
f 433/4/1 434/3/1 435/7/1 436/16/1
f 437/4/1 438/3/1 439/7/1 440/16/1
f 441/4/1 442/3/1 443/7/1 444/16/1
f 445/4/1 446/3/1 447/7/1 448/16/1
f 449/4/1 450/3/1 451/7/1 452/16/1
f 453/4/1 454/3/1 455/7/1 456/16/1
f 457/2/1 458/8/1 459/5/1 460/3/1

