# Tiled2Unity generated file. Do not modify by hand.
# Wavefront file for 'village1_mesh_0006.obj'

# Vertices (Count = 52)
v -34 -51 0
v -35 -51 0
v -35 -50 0
v -34 -50 0
v -31 -51 0
v -32 -51 0
v -32 -50 0
v -31 -50 0
v -64 -55 0
v -65 -55 0
v -65 -54 0
v -64 -54 0
v -62 -55 0
v -63 -55 0
v -63 -54 0
v -62 -54 0
v -60 -55 0
v -61 -55 0
v -61 -54 0
v -60 -54 0
v -62 -60 0
v -63 -60 0
v -63 -59 0
v -62 -59 0
v -60 -60 0
v -61 -60 0
v -61 -59 0
v -60 -59 0
v -61 -63 0
v -62 -63 0
v -62 -62 0
v -61 -62 0
v -59 -63 0
v -60 -63 0
v -60 -62 0
v -59 -62 0
v -58 -64 0
v -59 -64 0
v -59 -63 0
v -58 -63 0
v -60 -67 0
v -61 -67 0
v -61 -66 0
v -60 -66 0
v -58 -67 0
v -59 -67 0
v -59 -66 0
v -58 -66 0
v -57 -70 0
v -58 -70 0
v -58 -69 0
v -57 -69 0

# Texture cooridinates (Count = 4)
vt 0.5 0.1666667
vt 0.6666667 0.1666667
vt 0.6666667 0.3333333
vt 0.5 0.3333333

# Normal
vn 0 0 -1

# Mesh description
g village1_mesh_0006

# Faces
f 1/1/1 2/2/1 3/3/1 4/4/1
f 5/1/1 6/2/1 7/3/1 8/4/1
f 9/1/1 10/2/1 11/3/1 12/4/1
f 13/1/1 14/2/1 15/3/1 16/4/1
f 17/1/1 18/2/1 19/3/1 20/4/1
f 21/1/1 22/2/1 23/3/1 24/4/1
f 25/1/1 26/2/1 27/3/1 28/4/1
f 29/1/1 30/2/1 31/3/1 32/4/1
f 33/1/1 34/2/1 35/3/1 36/4/1
f 37/1/1 38/2/1 39/3/1 40/4/1
f 41/1/1 42/2/1 43/3/1 44/4/1
f 45/1/1 46/2/1 47/3/1 48/4/1
f 49/1/1 50/2/1 51/3/1 52/4/1

