# Tiled2Unity generated file. Do not modify by hand.
# Wavefront file for 'village1_mesh_0009.obj'

# Vertices (Count = 288)
v -48 -33 0
v -49 -33 0
v -49 -32 0
v -48 -32 0
v -48 -34 0
v -49 -34 0
v -49 -33 0
v -48 -33 0
v -50 -38 0
v -51 -38 0
v -51 -37 0
v -50 -37 0
v -48 -38 0
v -49 -38 0
v -49 -37 0
v -48 -37 0
v -46 -38 0
v -47 -38 0
v -47 -37 0
v -46 -37 0
v -43 -38 0
v -44 -38 0
v -44 -37 0
v -43 -37 0
v -38 -38 0
v -39 -38 0
v -39 -37 0
v -38 -37 0
v -38 -39 0
v -39 -39 0
v -39 -38 0
v -38 -38 0
v -53 -43 0
v -54 -43 0
v -54 -42 0
v -53 -42 0
v -51 -43 0
v -52 -43 0
v -52 -42 0
v -51 -42 0
v -53 -44 0
v -54 -44 0
v -54 -43 0
v -53 -43 0
v -51 -44 0
v -52 -44 0
v -52 -43 0
v -51 -43 0
v -41 -47 0
v -42 -47 0
v -42 -46 0
v -41 -46 0
v -39 -47 0
v -40 -47 0
v -40 -46 0
v -39 -46 0
v -55 -48 0
v -56 -48 0
v -56 -47 0
v -55 -47 0
v -53 -48 0
v -54 -48 0
v -54 -47 0
v -53 -47 0
v -51 -48 0
v -52 -48 0
v -52 -47 0
v -51 -47 0
v -36 -48 0
v -37 -48 0
v -37 -47 0
v -36 -47 0
v -78 -50 0
v -79 -50 0
v -79 -49 0
v -78 -49 0
v -77 -50 0
v -78 -50 0
v -78 -49 0
v -77 -49 0
v -76 -50 0
v -77 -50 0
v -77 -49 0
v -76 -49 0
v -75 -50 0
v -76 -50 0
v -76 -49 0
v -75 -49 0
v -74 -50 0
v -75 -50 0
v -75 -49 0
v -74 -49 0
v -73 -50 0
v -74 -50 0
v -74 -49 0
v -73 -49 0
v -72 -50 0
v -73 -50 0
v -73 -49 0
v -72 -49 0
v -71 -50 0
v -72 -50 0
v -72 -49 0
v -71 -49 0
v -70 -50 0
v -71 -50 0
v -71 -49 0
v -70 -49 0
v -69 -50 0
v -70 -50 0
v -70 -49 0
v -69 -49 0
v -68 -50 0
v -69 -50 0
v -69 -49 0
v -68 -49 0
v -67 -50 0
v -68 -50 0
v -68 -49 0
v -67 -49 0
v -66 -50 0
v -67 -50 0
v -67 -49 0
v -66 -49 0
v -58 -51 0
v -59 -51 0
v -59 -50 0
v -58 -50 0
v -41 -51 0
v -42 -51 0
v -42 -50 0
v -41 -50 0
v -36 -51 0
v -37 -51 0
v -37 -50 0
v -36 -50 0
v -58 -52 0
v -59 -52 0
v -59 -51 0
v -58 -51 0
v -41 -52 0
v -42 -52 0
v -42 -51 0
v -41 -51 0
v -50 -53 0
v -51 -53 0
v -51 -52 0
v -50 -52 0
v -49 -53 0
v -50 -53 0
v -50 -52 0
v -49 -52 0
v -48 -53 0
v -49 -53 0
v -49 -52 0
v -48 -52 0
v -47 -53 0
v -48 -53 0
v -48 -52 0
v -47 -52 0
v -46 -53 0
v -47 -53 0
v -47 -52 0
v -46 -52 0
v -45 -53 0
v -46 -53 0
v -46 -52 0
v -45 -52 0
v -44 -53 0
v -45 -53 0
v -45 -52 0
v -44 -52 0
v -43 -53 0
v -44 -53 0
v -44 -52 0
v -43 -52 0
v -42 -53 0
v -43 -53 0
v -43 -52 0
v -42 -52 0
v -58 -55 0
v -59 -55 0
v -59 -54 0
v -58 -54 0
v -78 -56 0
v -79 -56 0
v -79 -55 0
v -78 -55 0
v -77 -56 0
v -78 -56 0
v -78 -55 0
v -77 -55 0
v -74 -56 0
v -75 -56 0
v -75 -55 0
v -74 -55 0
v -73 -56 0
v -74 -56 0
v -74 -55 0
v -73 -55 0
v -72 -56 0
v -73 -56 0
v -73 -55 0
v -72 -55 0
v -71 -56 0
v -72 -56 0
v -72 -55 0
v -71 -55 0
v -70 -56 0
v -71 -56 0
v -71 -55 0
v -70 -55 0
v -69 -56 0
v -70 -56 0
v -70 -55 0
v -69 -55 0
v -68 -56 0
v -69 -56 0
v -69 -55 0
v -68 -55 0
v -67 -56 0
v -68 -56 0
v -68 -55 0
v -67 -55 0
v -66 -56 0
v -67 -56 0
v -67 -55 0
v -66 -55 0
v -58 -56 0
v -59 -56 0
v -59 -55 0
v -58 -55 0
v -40 -58 0
v -41 -58 0
v -41 -57 0
v -40 -57 0
v -38 -58 0
v -39 -58 0
v -39 -57 0
v -38 -57 0
v -49 -60 0
v -50 -60 0
v -50 -59 0
v -49 -59 0
v -61 -61 0
v -62 -61 0
v -62 -60 0
v -61 -60 0
v -60 -61 0
v -61 -61 0
v -61 -60 0
v -60 -60 0
v -49 -61 0
v -50 -61 0
v -50 -60 0
v -49 -60 0
v -57 -63 0
v -58 -63 0
v -58 -62 0
v -57 -62 0
v -53 -64 0
v -54 -64 0
v -54 -63 0
v -53 -63 0
v -59 -65 0
v -60 -65 0
v -60 -64 0
v -59 -64 0
v -58 -65 0
v -59 -65 0
v -59 -64 0
v -58 -64 0
v -51 -65 0
v -52 -65 0
v -52 -64 0
v -51 -64 0
v -49 -65 0
v -50 -65 0
v -50 -64 0
v -49 -64 0
v -46 -65 0
v -47 -65 0
v -47 -64 0
v -46 -64 0
v -57 -69 0
v -58 -69 0
v -58 -68 0
v -57 -68 0

# Texture cooridinates (Count = 24)
vt 0.8333333 0.1666667
vt 1 0.1666667
vt 1 0.3333333
vt 0.8333333 0.3333333
vt 0.6666667 0.1666667
vt 0.6666667 0.3333333
vt 0.3333333 0.6666666
vt 0.5 0.6666666
vt 0.5 0.8333333
vt 0.3333333 0.8333333
vt 0.6666667 0.6666666
vt 0.6666667 0.8333333
vt 0 0
vt 0.1666667 0
vt 0.1666667 0.1666667
vt 0 0.1666667
vt 0.3333333 0.1666667
vt 0.3333333 0.3333333
vt 0.1666667 0.3333333
vt 0 0.3333333
vt 0.5 0.1666667
vt 0.5 0.3333333
vt 0.3333333 0
vt 0.5 0

# Normal
vn 0 0 -1

# Mesh description
g village1_mesh_0009

# Faces
f 1/1/1 2/2/1 3/3/1 4/4/1
f 5/5/1 6/1/1 7/4/1 8/6/1
f 9/7/1 10/8/1 11/9/1 12/10/1
f 13/8/1 14/11/1 15/12/1 16/9/1
f 17/8/1 18/11/1 19/12/1 20/9/1
f 21/7/1 22/8/1 23/9/1 24/10/1
f 25/1/1 26/2/1 27/3/1 28/4/1
f 29/5/1 30/1/1 31/4/1 32/6/1
f 33/1/1 34/2/1 35/3/1 36/4/1
f 37/1/1 38/2/1 39/3/1 40/4/1
f 41/5/1 42/1/1 43/4/1 44/6/1
f 45/5/1 46/1/1 47/4/1 48/6/1
f 49/8/1 50/11/1 51/12/1 52/9/1
f 53/7/1 54/8/1 55/9/1 56/10/1
f 57/7/1 58/8/1 59/9/1 60/10/1
f 61/8/1 62/11/1 63/12/1 64/9/1
f 65/7/1 66/8/1 67/9/1 68/10/1
f 69/13/1 70/14/1 71/15/1 72/16/1
f 73/15/1 74/17/1 75/18/1 76/19/1
f 77/16/1 78/15/1 79/19/1 80/20/1
f 81/16/1 82/15/1 83/19/1 84/20/1
f 85/16/1 86/15/1 87/19/1 88/20/1
f 89/16/1 90/15/1 91/19/1 92/20/1
f 93/16/1 94/15/1 95/19/1 96/20/1
f 97/16/1 98/15/1 99/19/1 100/20/1
f 101/16/1 102/15/1 103/19/1 104/20/1
f 105/16/1 106/15/1 107/19/1 108/20/1
f 109/16/1 110/15/1 111/19/1 112/20/1
f 113/16/1 114/15/1 115/19/1 116/20/1
f 117/16/1 118/15/1 119/19/1 120/20/1
f 121/17/1 122/21/1 123/22/1 124/18/1
f 125/16/1 126/15/1 127/19/1 128/20/1
f 129/1/1 130/2/1 131/3/1 132/4/1
f 133/13/1 134/14/1 135/15/1 136/16/1
f 137/13/1 138/14/1 139/15/1 140/16/1
f 141/5/1 142/1/1 143/4/1 144/6/1
f 145/13/1 146/14/1 147/15/1 148/16/1
f 149/16/1 150/15/1 151/19/1 152/20/1
f 153/16/1 154/15/1 155/19/1 156/20/1
f 157/16/1 158/15/1 159/19/1 160/20/1
f 161/16/1 162/15/1 163/19/1 164/20/1
f 165/16/1 166/15/1 167/19/1 168/20/1
f 169/16/1 170/15/1 171/19/1 172/20/1
f 173/16/1 174/15/1 175/19/1 176/20/1
f 177/16/1 178/15/1 179/19/1 180/20/1
f 181/13/1 182/14/1 183/15/1 184/16/1
f 185/16/1 186/15/1 187/19/1 188/20/1
f 189/17/1 190/21/1 191/22/1 192/18/1
f 193/15/1 194/17/1 195/18/1 196/19/1
f 197/16/1 198/15/1 199/19/1 200/20/1
f 201/16/1 202/15/1 203/19/1 204/20/1
f 205/16/1 206/15/1 207/19/1 208/20/1
f 209/16/1 210/15/1 211/19/1 212/20/1
f 213/16/1 214/15/1 215/19/1 216/20/1
f 217/16/1 218/15/1 219/19/1 220/20/1
f 221/16/1 222/15/1 223/19/1 224/20/1
f 225/17/1 226/21/1 227/22/1 228/18/1
f 229/16/1 230/15/1 231/19/1 232/20/1
f 233/7/1 234/8/1 235/9/1 236/10/1
f 237/8/1 238/11/1 239/12/1 240/9/1
f 241/1/1 242/2/1 243/3/1 244/4/1
f 245/23/1 246/24/1 247/21/1 248/17/1
f 249/14/1 250/23/1 251/17/1 252/15/1
f 253/5/1 254/1/1 255/4/1 256/6/1
f 257/13/1 258/14/1 259/15/1 260/16/1
f 261/16/1 262/15/1 263/19/1 264/20/1
f 265/23/1 266/24/1 267/21/1 268/17/1
f 269/14/1 270/23/1 271/17/1 272/15/1
f 273/7/1 274/8/1 275/9/1 276/10/1
f 277/8/1 278/11/1 279/12/1 280/9/1
f 281/7/1 282/8/1 283/9/1 284/10/1
f 285/13/1 286/14/1 287/15/1 288/16/1

