# Tiled2Unity generated file. Do not modify by hand.
# Wavefront file for 'village1_mesh_0012.obj'

# Vertices (Count = 8)
v -52 -63 0
v -53 -63 0
v -53 -62 0
v -52 -62 0
v -45 -63 0
v -46 -63 0
v -46 -62 0
v -45 -62 0

# Texture cooridinates (Count = 8)
vt 0.25 0.25
vt 0.375 0.25
vt 0.375 0.375
vt 0.25 0.375
vt 0.875 0.375
vt 1 0.375
vt 1 0.5
vt 0.875 0.5

# Normal
vn 0 0 -1

# Mesh description
g village1_mesh_0012

# Faces
f 1/1/1 2/2/1 3/3/1 4/4/1
f 5/5/1 6/6/1 7/7/1 8/8/1

