# Tiled2Unity generated file. Do not modify by hand.
# Wavefront file for 'house4_mesh_0007.obj'

# Vertices (Count = 44)
v -6 -3 0
v -7 -3 0
v -7 -2 0
v -6 -2 0
v -4 -3 0
v -5 -3 0
v -5 -2 0
v -4 -2 0
v -2 -3 0
v -3 -3 0
v -3 -2 0
v -2 -2 0
v -7 -4 0
v -8 -4 0
v -8 -3 0
v -7 -3 0
v -6 -4 0
v -7 -4 0
v -7 -3 0
v -6 -3 0
v -5 -4 0
v -6 -4 0
v -6 -3 0
v -5 -3 0
v -4 -4 0
v -5 -4 0
v -5 -3 0
v -4 -3 0
v -3 -4 0
v -4 -4 0
v -4 -3 0
v -3 -3 0
v -2 -4 0
v -3 -4 0
v -3 -3 0
v -2 -3 0
v -2 -7 0
v -3 -7 0
v -3 -6 0
v -2 -6 0
v -2 -8 0
v -3 -8 0
v -3 -7 0
v -2 -7 0

# Texture cooridinates (Count = 11)
vt 0.3333333 0.6666666
vt 0.5 0.6666666
vt 0.5 0.8333333
vt 0.3333333 0.8333333
vt 0.6666667 0.6666666
vt 0.6666667 0.8333333
vt 0 0.5
vt 0.1666667 0.5
vt 0.1666667 0.6666666
vt 0 0.6666666
vt 0.3333333 0.5

# Normal
vn 0 0 -1

# Mesh description
g house4_mesh_0007

# Faces
f 1/1/1 2/2/1 3/3/1 4/4/1
f 5/2/1 6/5/1 7/6/1 8/3/1
f 9/1/1 10/2/1 11/3/1 12/4/1
f 13/7/1 14/8/1 15/9/1 16/10/1
f 17/7/1 18/8/1 19/9/1 20/10/1
f 21/7/1 22/8/1 23/9/1 24/10/1
f 25/7/1 26/8/1 27/9/1 28/10/1
f 29/7/1 30/8/1 31/9/1 32/10/1
f 33/7/1 34/8/1 35/9/1 36/10/1
f 37/8/1 38/11/1 39/1/1 40/9/1
f 41/8/1 42/11/1 43/1/1 44/9/1

