# Tiled2Unity generated file. Do not modify by hand.
# Wavefront file for 'house4_mesh_0005.obj'

# Vertices (Count = 16)
v -2 -6 0
v -3 -6 0
v -3 -5 0
v -2 -5 0
v -7 -8 0
v -8 -8 0
v -8 -7 0
v -7 -7 0
v -4 -8 0
v -5 -8 0
v -5 -7 0
v -4 -7 0
v -3 -8 0
v -4 -8 0
v -4 -7 0
v -3 -7 0

# Texture cooridinates (Count = 8)
vt 0.75 0.875
vt 1 0.875
vt 1 1
vt 0.75 1
vt 0 0.875
vt 0.25 0.875
vt 0.25 1
vt 0 1

# Normal
vn 0 0 -1

# Mesh description
g house4_mesh_0005

# Faces
f 1/1/1 2/2/1 3/3/1 4/4/1
f 5/5/1 6/6/1 7/7/1 8/8/1
f 9/1/1 10/2/1 11/3/1 12/4/1
f 13/1/1 14/2/1 15/3/1 16/4/1

